solid OpenSCAD_Model
  facet normal -1 -0 -0
    outer loop
      vertex -34.21 29.75 0
      vertex -34.21 29.75 35.59
      vertex -34.21 42.15 0
    endloop
  endfacet
  facet normal -1 0 0
    outer loop
      vertex -34.21 42.15 0
      vertex -34.21 29.75 35.59
      vertex -34.21 42.15 35.59
    endloop
  endfacet
  facet normal 0 -1 0
    outer loop
      vertex -34.21 29.75 35.59
      vertex -34.21 29.75 0
      vertex 34.21 29.75 0
    endloop
  endfacet
  facet normal 0 -1 0
    outer loop
      vertex 34.21 29.75 35.59
      vertex -34.21 29.75 35.59
      vertex 34.21 29.75 0
    endloop
  endfacet
  facet normal -0 -0 -1
    outer loop
      vertex -34.21 29.75 0
      vertex -34.21 42.15 0
      vertex 34.21 29.75 0
    endloop
  endfacet
  facet normal 0 0 -1
    outer loop
      vertex 34.21 29.75 0
      vertex -34.21 42.15 0
      vertex 34.21 42.15 0
    endloop
  endfacet
  facet normal 0 1 -0
    outer loop
      vertex 30.91 42.15 4
      vertex 34.21 42.15 0
      vertex 3.09 42.15 4
    endloop
  endfacet
  facet normal 0 1 0
    outer loop
      vertex -34.21 42.15 0
      vertex -34.21 42.15 35.59
      vertex 3.09 42.15 4
    endloop
  endfacet
  facet normal 0 1 0
    outer loop
      vertex -34.21 42.15 0
      vertex 3.09 42.15 4
      vertex 34.21 42.15 0
    endloop
  endfacet
  facet normal 0 1 0
    outer loop
      vertex 34.21 42.15 0
      vertex 30.91 42.15 4
      vertex 30.91 42.15 35.59
    endloop
  endfacet
  facet normal 0 1 0
    outer loop
      vertex 34.21 42.15 0
      vertex 30.91 42.15 35.59
      vertex 34.21 42.15 35.59
    endloop
  endfacet
  facet normal 0 1 0
    outer loop
      vertex 3.09 42.15 4
      vertex -34.21 42.15 35.59
      vertex 3.09 42.15 35.59
    endloop
  endfacet
  facet normal 0 0 1
    outer loop
      vertex 34.21 29.75 35.59
      vertex 34.21 42.15 35.59
      vertex 30.91 42.15 35.59
    endloop
  endfacet
  facet normal 0 0 1
    outer loop
      vertex 30.21 30.85 35.59
      vertex 34.21 29.75 35.59
      vertex 30.91 30.85 35.59
    endloop
  endfacet
  facet normal 0 0 1
    outer loop
      vertex 30.91 30.85 35.59
      vertex 34.21 29.75 35.59
      vertex 30.91 42.15 35.59
    endloop
  endfacet
  facet normal 0 0 1
    outer loop
      vertex -30.21 30.85 35.59
      vertex 34.21 29.75 35.59
      vertex 30.21 30.85 35.59
    endloop
  endfacet
  facet normal 0 0 1
    outer loop
      vertex -34.21 29.75 35.59
      vertex 34.21 29.75 35.59
      vertex -30.21 30.85 35.59
    endloop
  endfacet
  facet normal 0 0 1
    outer loop
      vertex -34.21 42.15 35.59
      vertex -30.21 30.85 35.59
      vertex -30.21 41.05 35.59
    endloop
  endfacet
  facet normal 0 0 1
    outer loop
      vertex -34.21 42.15 35.59
      vertex -30.21 41.05 35.59
      vertex 3.09 42.15 35.59
    endloop
  endfacet
  facet normal 0 0 1
    outer loop
      vertex -34.21 29.75 35.59
      vertex -30.21 30.85 35.59
      vertex -34.21 42.15 35.59
    endloop
  endfacet
  facet normal -0 0 1
    outer loop
      vertex 3.09 41.05 35.59
      vertex 3.09 42.15 35.59
      vertex -30.21 41.05 35.59
    endloop
  endfacet
  facet normal 1 0 -0
    outer loop
      vertex 34.21 29.75 35.59
      vertex 34.21 29.75 0
      vertex 34.21 42.15 0
    endloop
  endfacet
  facet normal 1 0 0
    outer loop
      vertex 34.21 42.15 35.59
      vertex 34.21 29.75 35.59
      vertex 34.21 42.15 0
    endloop
  endfacet
  facet normal -1 0 0
    outer loop
      vertex 30.91 42.15 35.59
      vertex 30.91 42.15 4
      vertex 30.91 30.85 35.59
    endloop
  endfacet
  facet normal -1 0 0
    outer loop
      vertex 30.91 30.85 35.59
      vertex 30.91 42.15 4
      vertex 30.91 30.85 4
    endloop
  endfacet
  facet normal 0 0 1
    outer loop
      vertex 30.91 42.15 4
      vertex 30.21 30.85 4
      vertex 30.91 30.85 4
    endloop
  endfacet
  facet normal 0 0 1
    outer loop
      vertex 3.09 42.15 4
      vertex 30.21 30.85 4
      vertex 30.91 42.15 4
    endloop
  endfacet
  facet normal 0 0 1
    outer loop
      vertex 3.09 41.05 4
      vertex 30.21 30.85 4
      vertex 3.09 42.15 4
    endloop
  endfacet
  facet normal 0 0 1
    outer loop
      vertex -30.21 41.05 4
      vertex 30.21 30.85 4
      vertex 3.09 41.05 4
    endloop
  endfacet
  facet normal 0 0 1
    outer loop
      vertex -30.21 30.85 4
      vertex 30.21 30.85 4
      vertex -30.21 41.05 4
    endloop
  endfacet
  facet normal 1 0 0
    outer loop
      vertex 3.09 42.15 4
      vertex 3.09 42.15 35.59
      vertex 3.09 41.05 35.59
    endloop
  endfacet
  facet normal 1 0 0
    outer loop
      vertex 3.09 41.05 4
      vertex 3.09 42.15 4
      vertex 3.09 41.05 35.59
    endloop
  endfacet
  facet normal 0 -1 0
    outer loop
      vertex 3.09 41.05 4
      vertex 3.09 41.05 35.59
      vertex -30.21 41.05 35.59
    endloop
  endfacet
  facet normal -0 -1 -0
    outer loop
      vertex -30.21 41.05 4
      vertex 3.09 41.05 4
      vertex -30.21 41.05 35.59
    endloop
  endfacet
  facet normal 1 0 0
    outer loop
      vertex -30.21 41.05 4
      vertex -30.21 41.05 35.59
      vertex -30.21 30.85 35.59
    endloop
  endfacet
  facet normal 1 0 0
    outer loop
      vertex -30.21 30.85 4
      vertex -30.21 41.05 4
      vertex -30.21 30.85 35.59
    endloop
  endfacet
  facet normal 0 1 0
    outer loop
      vertex 30.21 30.85 35.59
      vertex 30.21 30.85 4
      vertex -30.21 30.85 35.59
    endloop
  endfacet
  facet normal 0 1 -0
    outer loop
      vertex -30.21 30.85 35.59
      vertex 30.21 30.85 4
      vertex -30.21 30.85 4
    endloop
  endfacet
  facet normal 0 1 0
    outer loop
      vertex 30.91 30.85 35.59
      vertex 30.91 30.85 4
      vertex 30.21 30.85 35.59
    endloop
  endfacet
  facet normal 0 1 -0
    outer loop
      vertex 30.21 30.85 35.59
      vertex 30.91 30.85 4
      vertex 30.21 30.85 4
    endloop
  endfacet
  facet normal -0 0 -1
    outer loop
      vertex -41 8 0
      vertex -40.6085 10.4721 0
      vertex -40.6085 5.52786 0
    endloop
  endfacet
  facet normal 0 -0 -1
    outer loop
      vertex -40.6085 5.52786 0
      vertex -40.6085 10.4721 0
      vertex -39.4721 12.7023 0
    endloop
  endfacet
  facet normal 0 0 -1
    outer loop
      vertex -40.6085 5.52786 0
      vertex -39.4721 12.7023 0
      vertex -37.7023 14.4721 0
    endloop
  endfacet
  facet normal 0 0 -1
    outer loop
      vertex -40.6085 5.52786 0
      vertex -37.7023 14.4721 0
      vertex -35.4721 15.6085 0
    endloop
  endfacet
  facet normal 0 0 -1
    outer loop
      vertex -40.6085 5.52786 0
      vertex -35.4721 15.6085 0
      vertex -33 16 0
    endloop
  endfacet
  facet normal 0 0 -1
    outer loop
      vertex -40.6085 5.52786 0
      vertex -33 16 0
      vertex -30.5279 15.6085 0
    endloop
  endfacet
  facet normal 0 0 -1
    outer loop
      vertex -40.6085 5.52786 0
      vertex -30.5279 15.6085 0
      vertex -28.2977 14.4721 0
    endloop
  endfacet
  facet normal 0 0 -1
    outer loop
      vertex -40.6085 5.52786 0
      vertex -28.2977 14.4721 0
      vertex -26.5279 12.7023 0
    endloop
  endfacet
  facet normal 0 0 -1
    outer loop
      vertex -40.6085 5.52786 0
      vertex -26.5279 12.7023 0
      vertex -25.3915 10.4721 0
    endloop
  endfacet
  facet normal 0 0 -1
    outer loop
      vertex -40.6085 5.52786 0
      vertex -25.3915 10.4721 0
      vertex -25.0226 8.1429 0
    endloop
  endfacet
  facet normal -0 0 -1
    outer loop
      vertex -40.6085 5.52786 0
      vertex -25.0226 8.1429 0
      vertex 35.1897 1.81433 0
    endloop
  endfacet
  facet normal 0 0 -1
    outer loop
      vertex 34.9792 26.2258 0
      vertex 33.71 26.146 0
      vertex 33.71 26.25 0
    endloop
  endfacet
  facet normal -0 -0 -1
    outer loop
      vertex -34.21 26.25 0
      vertex -34.21 26.3357 0
      vertex 33.71 26.25 0
    endloop
  endfacet
  facet normal 0 0 -1
    outer loop
      vertex -34.21 26.3357 0
      vertex -34.7508 26.3357 0
      vertex -35.6258 26.9714 0
    endloop
  endfacet
  facet normal -0 -0 -1
    outer loop
      vertex -34.21 26.3357 0
      vertex -35.6258 26.9714 0
      vertex 33.71 26.25 0
    endloop
  endfacet
  facet normal 0 0 -1
    outer loop
      vertex 33.71 26.25 0
      vertex -35.6258 26.9714 0
      vertex -35.96 28 0
    endloop
  endfacet
  facet normal -0 -0 -1
    outer loop
      vertex 33.71 26.25 0
      vertex -35.96 28 0
      vertex 34.9792 26.2258 0
    endloop
  endfacet
  facet normal 0 0 -1
    outer loop
      vertex 34.9792 26.2258 0
      vertex -35.96 28 0
      vertex -35.6258 29.0286 0
    endloop
  endfacet
  facet normal 0 0 -1
    outer loop
      vertex 34.9792 26.2258 0
      vertex -35.6258 29.0286 0
      vertex -34.7508 29.6643 0
    endloop
  endfacet
  facet normal 0 0 -1
    outer loop
      vertex 34.9792 26.2258 0
      vertex -34.7508 29.6643 0
      vertex -34.21 29.6643 0
    endloop
  endfacet
  facet normal 0 0 -1
    outer loop
      vertex 34.9792 26.2258 0
      vertex -34.21 29.6643 0
      vertex -34.21 29.75 0
    endloop
  endfacet
  facet normal 0 0 -1
    outer loop
      vertex 34.21 29.6567 0
      vertex -34.21 29.75 0
      vertex 34.21 29.75 0
    endloop
  endfacet
  facet normal 0 0 -1
    outer loop
      vertex 34.9792 26.2258 0
      vertex -34.21 29.75 0
      vertex 34.21 29.6567 0
    endloop
  endfacet
  facet normal 0 0 -1
    outer loop
      vertex -25.8101 4.70638 0
      vertex 39.077 -0.97914 0
      vertex 35.5361 -1.65461 0
    endloop
  endfacet
  facet normal -0 -0 -1
    outer loop
      vertex 40.7739 24.343 0
      vertex 35.199 29.7189 0
      vertex 43.1399 22.3857 0
    endloop
  endfacet
  facet normal 0 0 -1
    outer loop
      vertex 43.1399 22.3857 0
      vertex 35.199 29.7189 0
      vertex 39.077 28.9791 0
    endloop
  endfacet
  facet normal -0 -0 -1
    outer loop
      vertex 43.1399 22.3857 0
      vertex 39.077 28.9791 0
      vertex 44.9448 19.9015 0
    endloop
  endfacet
  facet normal 0 0 -1
    outer loop
      vertex 44.9448 19.9015 0
      vertex 39.077 28.9791 0
      vertex 42.6493 27.2982 0
    endloop
  endfacet
  facet normal -0 -0 -1
    outer loop
      vertex 44.9448 19.9015 0
      vertex 42.6493 27.2982 0
      vertex 46.0751 17.0465 0
    endloop
  endfacet
  facet normal 0 0 -1
    outer loop
      vertex 46.0751 17.0465 0
      vertex 42.6493 27.2982 0
      vertex 45.6913 24.7816 0
    endloop
  endfacet
  facet normal -0 -0 -1
    outer loop
      vertex 46.0751 17.0465 0
      vertex 45.6913 24.7816 0
      vertex 46.46 14 0
    endloop
  endfacet
  facet normal 0 -0 -1
    outer loop
      vertex 46.46 14 0
      vertex 45.6913 24.7816 0
      vertex 48.0118 21.5876 0
    endloop
  endfacet
  facet normal -0 0 -1
    outer loop
      vertex 46.46 14 0
      vertex 48.0118 21.5876 0
      vertex 46.0751 10.9535 0
    endloop
  endfacet
  facet normal 0 0 -1
    outer loop
      vertex 46.0751 10.9535 0
      vertex 48.0118 21.5876 0
      vertex 49.4652 17.9169 0
    endloop
  endfacet
  facet normal -0 0 -1
    outer loop
      vertex 46.0751 10.9535 0
      vertex 49.4652 17.9169 0
      vertex 44.9448 8.09852 0
    endloop
  endfacet
  facet normal 0 0 -1
    outer loop
      vertex 44.9448 8.09852 0
      vertex 49.4652 17.9169 0
      vertex 49.96 14 0
    endloop
  endfacet
  facet normal -0 0 -1
    outer loop
      vertex 44.9448 8.09852 0
      vertex 49.96 14 0
      vertex 43.1399 5.6143 0
    endloop
  endfacet
  facet normal 0 0 -1
    outer loop
      vertex 43.1399 5.6143 0
      vertex 49.96 14 0
      vertex 49.4652 10.0831 0
    endloop
  endfacet
  facet normal -0 0 -1
    outer loop
      vertex 43.1399 5.6143 0
      vertex 49.4652 10.0831 0
      vertex 40.7739 3.65698 0
    endloop
  endfacet
  facet normal 0 0 -1
    outer loop
      vertex 40.7739 3.65698 0
      vertex 49.4652 10.0831 0
      vertex 48.0118 6.41238 0
    endloop
  endfacet
  facet normal -0 0 -1
    outer loop
      vertex 40.7739 3.65698 0
      vertex 48.0118 6.41238 0
      vertex 37.9955 2.34956 0
    endloop
  endfacet
  facet normal 0 0 -1
    outer loop
      vertex 37.9955 2.34956 0
      vertex 48.0118 6.41238 0
      vertex 45.6913 3.21838 0
    endloop
  endfacet
  facet normal -0 0 -1
    outer loop
      vertex 37.9955 2.34956 0
      vertex 45.6913 3.21838 0
      vertex 35.1897 1.81433 0
    endloop
  endfacet
  facet normal -0 0 -1
    outer loop
      vertex 35.1897 1.81433 0
      vertex 45.6913 3.21838 0
      vertex 42.6493 0.701835 0
    endloop
  endfacet
  facet normal 0 -0 -1
    outer loop
      vertex -26.5279 3.29772 0
      vertex -40.6085 5.52786 0
      vertex -25.8101 4.70638 0
    endloop
  endfacet
  facet normal -0 0 -1
    outer loop
      vertex 35.2429 -1.71054 0
      vertex 35.5361 -1.65461 0
      vertex 35.5271 -1.74041 0
    endloop
  endfacet
  facet normal 0 0 -1
    outer loop
      vertex 33.71 -1.54943 0
      vertex 35.5361 -1.65461 0
      vertex 35.2429 -1.71054 0
    endloop
  endfacet
  facet normal 0 0 -1
    outer loop
      vertex 33.71 -1.54943 0
      vertex 35.199 -1.71892 0
      vertex 33.71 -1.62524 0
    endloop
  endfacet
  facet normal 0 0 -1
    outer loop
      vertex 33.71 -1.54943 0
      vertex 35.2429 -1.71054 0
      vertex 35.199 -1.71892 0
    endloop
  endfacet
  facet normal 0 0 -1
    outer loop
      vertex -25.8101 4.70638 0
      vertex 35.5361 -1.65461 0
      vertex 33.71 -1.54943 0
    endloop
  endfacet
  facet normal 0 0 -1
    outer loop
      vertex -25.8101 4.70638 0
      vertex 42.6493 0.701835 0
      vertex 39.077 -0.97914 0
    endloop
  endfacet
  facet normal 0 0 -1
    outer loop
      vertex 35.1897 1.81433 0
      vertex 42.6493 0.701835 0
      vertex -25.8101 4.70638 0
    endloop
  endfacet
  facet normal 0 0 -1
    outer loop
      vertex 35.1897 1.81433 0
      vertex -25.8101 4.70638 0
      vertex -40.6085 5.52786 0
    endloop
  endfacet
  facet normal 0 0 -1
    outer loop
      vertex -40.6085 5.52786 0
      vertex -26.5279 3.29772 0
      vertex -28.2977 1.52786 0
    endloop
  endfacet
  facet normal 0 0 -1
    outer loop
      vertex -28.2977 1.52786 0
      vertex -30.5279 0.391548 0
      vertex -40.6085 5.52786 0
    endloop
  endfacet
  facet normal 0 0 -1
    outer loop
      vertex -40.6085 5.52786 0
      vertex -30.5279 0.391548 0
      vertex -33 0 0
    endloop
  endfacet
  facet normal 0 0 -1
    outer loop
      vertex -40.6085 5.52786 0
      vertex -33 0 0
      vertex -35.4721 0.391548 0
    endloop
  endfacet
  facet normal 0 0 -1
    outer loop
      vertex -40.6085 5.52786 0
      vertex -35.4721 0.391548 0
      vertex -37.7023 1.52786 0
    endloop
  endfacet
  facet normal 0 0 -1
    outer loop
      vertex -40.6085 5.52786 0
      vertex -37.7023 1.52786 0
      vertex -39.4721 3.29772 0
    endloop
  endfacet
  facet normal 0 0 -1
    outer loop
      vertex 35.199 29.7189 0
      vertex 40.7739 24.343 0
      vertex 37.9955 25.6504 0
    endloop
  endfacet
  facet normal 0 0 -1
    outer loop
      vertex 35.199 29.7189 0
      vertex 37.9955 25.6504 0
      vertex 34.9792 26.2258 0
    endloop
  endfacet
  facet normal 0 0 -1
    outer loop
      vertex 35.199 29.7189 0
      vertex 34.9792 26.2258 0
      vertex 34.21 29.6567 0
    endloop
  endfacet
  facet normal -0.987688 0.156435 0
    outer loop
      vertex -41 8 0
      vertex -41 8 2
      vertex -40.6085 10.4721 0
    endloop
  endfacet
  facet normal -0.987688 0.156435 0
    outer loop
      vertex -40.6085 10.4721 0
      vertex -41 8 2
      vertex -40.6085 10.4721 2
    endloop
  endfacet
  facet normal -0.987688 -0.156435 -0
    outer loop
      vertex -41 8 0
      vertex -40.6085 5.52786 0
      vertex -41 8 2
    endloop
  endfacet
  facet normal -0.987688 -0.156435 0
    outer loop
      vertex -41 8 2
      vertex -40.6085 5.52786 0
      vertex -40.6085 5.52786 2
    endloop
  endfacet
  facet normal -0.891007 -0.45399 -0
    outer loop
      vertex -40.6085 5.52786 0
      vertex -39.4721 3.29772 0
      vertex -40.6085 5.52786 2
    endloop
  endfacet
  facet normal -0.891007 -0.45399 0
    outer loop
      vertex -40.6085 5.52786 2
      vertex -39.4721 3.29772 0
      vertex -39.4721 3.29772 2
    endloop
  endfacet
  facet normal -0.707107 -0.707107 0
    outer loop
      vertex -39.4721 3.29772 2
      vertex -39.4721 3.29772 0
      vertex -37.7023 1.52786 0
    endloop
  endfacet
  facet normal -0.707107 -0.707107 0
    outer loop
      vertex -37.7023 1.52786 2
      vertex -39.4721 3.29772 2
      vertex -37.7023 1.52786 0
    endloop
  endfacet
  facet normal -0.45399 -0.891007 0
    outer loop
      vertex -37.7023 1.52786 2
      vertex -37.7023 1.52786 0
      vertex -35.4721 0.391548 0
    endloop
  endfacet
  facet normal -0.45399 -0.891007 0
    outer loop
      vertex -35.4721 0.391548 2
      vertex -37.7023 1.52786 2
      vertex -35.4721 0.391548 0
    endloop
  endfacet
  facet normal -0.156435 -0.987688 0
    outer loop
      vertex -35.4721 0.391548 2
      vertex -35.4721 0.391548 0
      vertex -33 0 0
    endloop
  endfacet
  facet normal -0.156435 -0.987688 0
    outer loop
      vertex -33 0 2
      vertex -35.4721 0.391548 2
      vertex -33 0 0
    endloop
  endfacet
  facet normal 0.156435 -0.987688 0
    outer loop
      vertex -33 0 2
      vertex -33 0 0
      vertex -30.5279 0.391548 0
    endloop
  endfacet
  facet normal 0.156435 -0.987688 0
    outer loop
      vertex -30.5279 0.391548 2
      vertex -33 0 2
      vertex -30.5279 0.391548 0
    endloop
  endfacet
  facet normal 0.45399 -0.891007 0
    outer loop
      vertex -30.5279 0.391548 2
      vertex -30.5279 0.391548 0
      vertex -28.2977 1.52786 0
    endloop
  endfacet
  facet normal 0.45399 -0.891007 0
    outer loop
      vertex -28.2977 1.52786 2
      vertex -30.5279 0.391548 2
      vertex -28.2977 1.52786 0
    endloop
  endfacet
  facet normal 0.707107 -0.707107 0
    outer loop
      vertex -28.2977 1.52786 2
      vertex -28.2977 1.52786 0
      vertex -26.5279 3.29772 0
    endloop
  endfacet
  facet normal 0.707107 -0.707107 0
    outer loop
      vertex -26.5279 3.29772 2
      vertex -28.2977 1.52786 2
      vertex -26.5279 3.29772 0
    endloop
  endfacet
  facet normal 0.891007 -0.45399 0
    outer loop
      vertex -26.5279 3.29772 2
      vertex -26.5279 3.29772 0
      vertex -25.8101 4.70638 0
    endloop
  endfacet
  facet normal 0.891007 -0.45399 0
    outer loop
      vertex -25.8101 4.70638 2
      vertex -26.5279 3.29772 2
      vertex -25.8101 4.70638 0
    endloop
  endfacet
  facet normal -0.104528 -0.994522 0
    outer loop
      vertex -32.5181 5.41142 38
      vertex -32.5181 5.41142 2
      vertex -25.8101 4.70638 2
    endloop
  endfacet
  facet normal -0.104528 -0.994522 2.84303e-17
    outer loop
      vertex 33.71 -1.54943 0
      vertex -32.5181 5.41142 38
      vertex -25.8101 4.70638 2
    endloop
  endfacet
  facet normal -0.104528 -0.994522 -0
    outer loop
      vertex -25.8101 4.70638 0
      vertex 33.71 -1.54943 0
      vertex -25.8101 4.70638 2
    endloop
  endfacet
  facet normal -0.104528 -0.994522 -0
    outer loop
      vertex 33.71 -1.54943 0
      vertex 33.71 -1.54943 38
      vertex -32.5181 5.41142 38
    endloop
  endfacet
  facet normal -1 0 0
    outer loop
      vertex 33.71 -1.54943 38
      vertex 33.71 -1.54943 0
      vertex 33.71 -1.62524 38
    endloop
  endfacet
  facet normal -1 0 0
    outer loop
      vertex 33.71 -1.62524 38
      vertex 33.71 -1.54943 0
      vertex 33.71 -1.62524 0
    endloop
  endfacet
  facet normal -0.0627906 -0.998027 0
    outer loop
      vertex 33.71 -1.62524 38
      vertex 33.71 -1.62524 0
      vertex 35.199 -1.71892 0
    endloop
  endfacet
  facet normal -0.0627906 -0.998027 0
    outer loop
      vertex 35.199 -1.71892 38
      vertex 33.71 -1.62524 38
      vertex 35.199 -1.71892 0
    endloop
  endfacet
  facet normal 0.187381 -0.982287 0
    outer loop
      vertex 35.199 -1.71892 38
      vertex 35.199 -1.71892 0
      vertex 35.2429 -1.71054 0
    endloop
  endfacet
  facet normal 0.187381 -0.982287 0
    outer loop
      vertex 35.2429 -1.71054 38
      vertex 35.199 -1.71892 38
      vertex 35.2429 -1.71054 0
    endloop
  endfacet
  facet normal -0.104528 -0.994522 0
    outer loop
      vertex 35.2429 -1.71054 38
      vertex 35.2429 -1.71054 0
      vertex 35.5271 -1.74041 0
    endloop
  endfacet
  facet normal -0.104528 -0.994522 0
    outer loop
      vertex 35.5271 -1.74041 38
      vertex 35.2429 -1.71054 38
      vertex 35.5271 -1.74041 0
    endloop
  endfacet
  facet normal 0.994522 -0.104528 0
    outer loop
      vertex 35.5271 -1.74041 38
      vertex 35.5271 -1.74041 0
      vertex 35.5361 -1.65461 0
    endloop
  endfacet
  facet normal 0.994522 -0.104528 0
    outer loop
      vertex 35.5361 -1.65461 38
      vertex 35.5271 -1.74041 38
      vertex 35.5361 -1.65461 0
    endloop
  endfacet
  facet normal 0.187381 -0.982287 0
    outer loop
      vertex 35.5361 -1.65461 38
      vertex 35.5361 -1.65461 0
      vertex 39.077 -0.97914 0
    endloop
  endfacet
  facet normal 0.187381 -0.982287 0
    outer loop
      vertex 39.077 -0.97914 38
      vertex 35.5361 -1.65461 38
      vertex 39.077 -0.97914 0
    endloop
  endfacet
  facet normal 0.425779 -0.904827 0
    outer loop
      vertex 39.077 -0.97914 38
      vertex 39.077 -0.97914 0
      vertex 42.6493 0.701835 0
    endloop
  endfacet
  facet normal 0.425779 -0.904827 0
    outer loop
      vertex 42.6493 0.701835 38
      vertex 39.077 -0.97914 38
      vertex 42.6493 0.701835 0
    endloop
  endfacet
  facet normal 0.637424 -0.770513 0
    outer loop
      vertex 42.6493 0.701835 38
      vertex 42.6493 0.701835 0
      vertex 45.6913 3.21838 0
    endloop
  endfacet
  facet normal 0.637424 -0.770513 0
    outer loop
      vertex 45.6913 3.21838 38
      vertex 42.6493 0.701835 38
      vertex 45.6913 3.21838 0
    endloop
  endfacet
  facet normal 0.809017 -0.587785 0
    outer loop
      vertex 45.6913 3.21838 38
      vertex 45.6913 3.21838 0
      vertex 48.0118 6.41238 0
    endloop
  endfacet
  facet normal 0.809017 -0.587785 0
    outer loop
      vertex 48.0118 6.41238 38
      vertex 45.6913 3.21838 38
      vertex 48.0118 6.41238 0
    endloop
  endfacet
  facet normal 0.929776 -0.368125 0
    outer loop
      vertex 48.0118 6.41238 38
      vertex 48.0118 6.41238 0
      vertex 49.4652 10.0831 0
    endloop
  endfacet
  facet normal 0.929776 -0.368125 0
    outer loop
      vertex 49.4652 10.0831 38
      vertex 48.0118 6.41238 38
      vertex 49.4652 10.0831 0
    endloop
  endfacet
  facet normal 0.992115 -0.125333 0
    outer loop
      vertex 49.4652 10.0831 38
      vertex 49.4652 10.0831 0
      vertex 49.96 14 0
    endloop
  endfacet
  facet normal 0.992115 -0.125333 0
    outer loop
      vertex 49.96 14 38
      vertex 49.4652 10.0831 38
      vertex 49.96 14 0
    endloop
  endfacet
  facet normal 0.992115 0.125333 0
    outer loop
      vertex 49.96 14 0
      vertex 49.4652 17.9169 0
      vertex 49.4652 17.9169 38
    endloop
  endfacet
  facet normal 0.992115 0.125333 -0
    outer loop
      vertex 49.96 14 38
      vertex 49.96 14 0
      vertex 49.4652 17.9169 38
    endloop
  endfacet
  facet normal 0.929776 0.368125 0
    outer loop
      vertex 49.4652 17.9169 0
      vertex 48.0118 21.5876 0
      vertex 48.0118 21.5876 38
    endloop
  endfacet
  facet normal 0.929776 0.368125 -0
    outer loop
      vertex 49.4652 17.9169 38
      vertex 49.4652 17.9169 0
      vertex 48.0118 21.5876 38
    endloop
  endfacet
  facet normal 0.809017 0.587785 0
    outer loop
      vertex 48.0118 21.5876 0
      vertex 45.6913 24.7816 0
      vertex 45.6913 24.7816 38
    endloop
  endfacet
  facet normal 0.809017 0.587785 -0
    outer loop
      vertex 48.0118 21.5876 38
      vertex 48.0118 21.5876 0
      vertex 45.6913 24.7816 38
    endloop
  endfacet
  facet normal 0.637424 0.770513 0
    outer loop
      vertex 42.6493 27.2982 0
      vertex 42.6493 27.2982 38
      vertex 45.6913 24.7816 0
    endloop
  endfacet
  facet normal 0.637424 0.770513 0
    outer loop
      vertex 45.6913 24.7816 0
      vertex 42.6493 27.2982 38
      vertex 45.6913 24.7816 38
    endloop
  endfacet
  facet normal 0.425779 0.904827 0
    outer loop
      vertex 39.077 28.9791 0
      vertex 39.077 28.9791 38
      vertex 42.6493 27.2982 0
    endloop
  endfacet
  facet normal 0.425779 0.904827 0
    outer loop
      vertex 42.6493 27.2982 0
      vertex 39.077 28.9791 38
      vertex 42.6493 27.2982 38
    endloop
  endfacet
  facet normal 0.187381 0.982287 0
    outer loop
      vertex 35.199 29.7189 0
      vertex 35.199 29.7189 38
      vertex 39.077 28.9791 0
    endloop
  endfacet
  facet normal 0.187381 0.982287 0
    outer loop
      vertex 39.077 28.9791 0
      vertex 35.199 29.7189 38
      vertex 39.077 28.9791 38
    endloop
  endfacet
  facet normal -0.0627906 0.998027 0
    outer loop
      vertex 34.21 29.6567 0
      vertex 34.21 29.6567 38
      vertex 35.199 29.7189 0
    endloop
  endfacet
  facet normal -0.0627906 0.998027 0
    outer loop
      vertex 35.199 29.7189 0
      vertex 34.21 29.6567 38
      vertex 35.199 29.7189 38
    endloop
  endfacet
  facet normal 1 0 -0
    outer loop
      vertex 34.21 29.6567 38
      vertex 34.21 29.6567 0
      vertex 34.21 29.75 0
    endloop
  endfacet
  facet normal 1 0 0
    outer loop
      vertex 34.21 29.75 38
      vertex 34.21 29.6567 38
      vertex 34.21 29.75 0
    endloop
  endfacet
  facet normal 0 1 0
    outer loop
      vertex -34.21 29.75 0
      vertex -34.21 29.75 38
      vertex 34.21 29.75 0
    endloop
  endfacet
  facet normal 0 1 0
    outer loop
      vertex 34.21 29.75 0
      vertex -34.21 29.75 38
      vertex 34.21 29.75 38
    endloop
  endfacet
  facet normal -1 -0 -0
    outer loop
      vertex -34.21 29.6643 0
      vertex -34.21 29.6643 38
      vertex -34.21 29.75 0
    endloop
  endfacet
  facet normal -1 0 0
    outer loop
      vertex -34.21 29.75 0
      vertex -34.21 29.6643 38
      vertex -34.21 29.75 38
    endloop
  endfacet
  facet normal 0 1 0
    outer loop
      vertex -34.7508 29.6643 0
      vertex -34.7508 29.6643 38
      vertex -34.21 29.6643 0
    endloop
  endfacet
  facet normal 0 1 0
    outer loop
      vertex -34.21 29.6643 0
      vertex -34.7508 29.6643 38
      vertex -34.21 29.6643 38
    endloop
  endfacet
  facet normal -0.587785 0.809017 0
    outer loop
      vertex -35.6258 29.0286 0
      vertex -35.6258 29.0286 38
      vertex -34.7508 29.6643 0
    endloop
  endfacet
  facet normal -0.587785 0.809017 0
    outer loop
      vertex -34.7508 29.6643 0
      vertex -35.6258 29.0286 38
      vertex -34.7508 29.6643 38
    endloop
  endfacet
  facet normal -0.951057 0.309017 0
    outer loop
      vertex -35.96 28 0
      vertex -35.96 28 38
      vertex -35.6258 29.0286 0
    endloop
  endfacet
  facet normal -0.951057 0.309017 0
    outer loop
      vertex -35.6258 29.0286 0
      vertex -35.96 28 38
      vertex -35.6258 29.0286 38
    endloop
  endfacet
  facet normal -0.951057 -0.309017 -0
    outer loop
      vertex -35.96 28 0
      vertex -35.6258 26.9714 0
      vertex -35.96 28 38
    endloop
  endfacet
  facet normal -0.951057 -0.309017 0
    outer loop
      vertex -35.96 28 38
      vertex -35.6258 26.9714 0
      vertex -35.6258 26.9714 38
    endloop
  endfacet
  facet normal -0.587785 -0.809017 0
    outer loop
      vertex -35.6258 26.9714 38
      vertex -35.6258 26.9714 0
      vertex -34.7508 26.3357 0
    endloop
  endfacet
  facet normal -0.587785 -0.809017 0
    outer loop
      vertex -34.7508 26.3357 38
      vertex -35.6258 26.9714 38
      vertex -34.7508 26.3357 0
    endloop
  endfacet
  facet normal 0 -1 0
    outer loop
      vertex -34.7508 26.3357 38
      vertex -34.7508 26.3357 0
      vertex -34.21 26.3357 0
    endloop
  endfacet
  facet normal 0 -1 0
    outer loop
      vertex -34.21 26.3357 38
      vertex -34.7508 26.3357 38
      vertex -34.21 26.3357 0
    endloop
  endfacet
  facet normal -1 -0 -0
    outer loop
      vertex -34.21 26.25 0
      vertex -34.21 26.25 38
      vertex -34.21 26.3357 0
    endloop
  endfacet
  facet normal -1 0 0
    outer loop
      vertex -34.21 26.3357 0
      vertex -34.21 26.25 38
      vertex -34.21 26.3357 38
    endloop
  endfacet
  facet normal 0 -1 0
    outer loop
      vertex -34.21 26.25 38
      vertex -34.21 26.25 0
      vertex 33.71 26.25 0
    endloop
  endfacet
  facet normal 0 -1 0
    outer loop
      vertex 33.71 26.25 38
      vertex -34.21 26.25 38
      vertex 33.71 26.25 0
    endloop
  endfacet
  facet normal -1 0 0
    outer loop
      vertex 33.71 26.25 38
      vertex 33.71 26.25 0
      vertex 33.71 26.146 38
    endloop
  endfacet
  facet normal -1 0 0
    outer loop
      vertex 33.71 26.146 38
      vertex 33.71 26.25 0
      vertex 33.71 26.146 0
    endloop
  endfacet
  facet normal 0.0627903 -0.998027 0
    outer loop
      vertex 34.9792 26.2258 0
      vertex 34.9792 26.2258 38
      vertex 33.71 26.146 38
    endloop
  endfacet
  facet normal 0.0627903 -0.998027 0
    outer loop
      vertex 33.71 26.146 0
      vertex 34.9792 26.2258 0
      vertex 33.71 26.146 38
    endloop
  endfacet
  facet normal -0.187381 -0.982287 -0
    outer loop
      vertex 37.9955 25.6504 0
      vertex 37.9955 25.6504 38
      vertex 34.9792 26.2258 38
    endloop
  endfacet
  facet normal -0.187381 -0.982287 -0
    outer loop
      vertex 34.9792 26.2258 0
      vertex 37.9955 25.6504 0
      vertex 34.9792 26.2258 38
    endloop
  endfacet
  facet normal -0.425779 -0.904827 -0
    outer loop
      vertex 40.7739 24.343 0
      vertex 40.7739 24.343 38
      vertex 37.9955 25.6504 38
    endloop
  endfacet
  facet normal -0.425779 -0.904827 -0
    outer loop
      vertex 37.9955 25.6504 0
      vertex 40.7739 24.343 0
      vertex 37.9955 25.6504 38
    endloop
  endfacet
  facet normal -0.637424 -0.770513 -0
    outer loop
      vertex 43.1399 22.3857 0
      vertex 43.1399 22.3857 38
      vertex 40.7739 24.343 38
    endloop
  endfacet
  facet normal -0.637424 -0.770513 -0
    outer loop
      vertex 40.7739 24.343 0
      vertex 43.1399 22.3857 0
      vertex 40.7739 24.343 38
    endloop
  endfacet
  facet normal -0.809017 -0.587785 0
    outer loop
      vertex 44.9448 19.9015 38
      vertex 43.1399 22.3857 38
      vertex 44.9448 19.9015 0
    endloop
  endfacet
  facet normal -0.809017 -0.587785 0
    outer loop
      vertex 44.9448 19.9015 0
      vertex 43.1399 22.3857 38
      vertex 43.1399 22.3857 0
    endloop
  endfacet
  facet normal -0.929777 -0.368125 0
    outer loop
      vertex 46.0751 17.0465 38
      vertex 44.9448 19.9015 38
      vertex 46.0751 17.0465 0
    endloop
  endfacet
  facet normal -0.929777 -0.368125 0
    outer loop
      vertex 46.0751 17.0465 0
      vertex 44.9448 19.9015 38
      vertex 44.9448 19.9015 0
    endloop
  endfacet
  facet normal -0.992115 -0.125333 0
    outer loop
      vertex 46.46 14 38
      vertex 46.0751 17.0465 38
      vertex 46.46 14 0
    endloop
  endfacet
  facet normal -0.992115 -0.125333 0
    outer loop
      vertex 46.46 14 0
      vertex 46.0751 17.0465 38
      vertex 46.0751 17.0465 0
    endloop
  endfacet
  facet normal -0.992115 0.125333 0
    outer loop
      vertex 46.46 14 38
      vertex 46.46 14 0
      vertex 46.0751 10.9535 38
    endloop
  endfacet
  facet normal -0.992115 0.125333 0
    outer loop
      vertex 46.0751 10.9535 38
      vertex 46.46 14 0
      vertex 46.0751 10.9535 0
    endloop
  endfacet
  facet normal -0.929777 0.368125 0
    outer loop
      vertex 46.0751 10.9535 38
      vertex 46.0751 10.9535 0
      vertex 44.9448 8.09852 38
    endloop
  endfacet
  facet normal -0.929777 0.368125 0
    outer loop
      vertex 44.9448 8.09852 38
      vertex 46.0751 10.9535 0
      vertex 44.9448 8.09852 0
    endloop
  endfacet
  facet normal -0.809017 0.587785 0
    outer loop
      vertex 44.9448 8.09852 38
      vertex 44.9448 8.09852 0
      vertex 43.1399 5.6143 38
    endloop
  endfacet
  facet normal -0.809017 0.587785 0
    outer loop
      vertex 43.1399 5.6143 38
      vertex 44.9448 8.09852 0
      vertex 43.1399 5.6143 0
    endloop
  endfacet
  facet normal -0.637424 0.770513 0
    outer loop
      vertex 43.1399 5.6143 38
      vertex 43.1399 5.6143 0
      vertex 40.7739 3.65698 38
    endloop
  endfacet
  facet normal -0.637424 0.770513 0
    outer loop
      vertex 40.7739 3.65698 38
      vertex 43.1399 5.6143 0
      vertex 40.7739 3.65698 0
    endloop
  endfacet
  facet normal -0.425779 0.904827 0
    outer loop
      vertex 40.7739 3.65698 38
      vertex 40.7739 3.65698 0
      vertex 37.9955 2.34956 38
    endloop
  endfacet
  facet normal -0.425779 0.904827 0
    outer loop
      vertex 37.9955 2.34956 38
      vertex 40.7739 3.65698 0
      vertex 37.9955 2.34956 0
    endloop
  endfacet
  facet normal -0.187381 0.982287 0
    outer loop
      vertex 37.9955 2.34956 38
      vertex 37.9955 2.34956 0
      vertex 35.1897 1.81433 38
    endloop
  endfacet
  facet normal -0.187381 0.982287 0
    outer loop
      vertex 35.1897 1.81433 38
      vertex 37.9955 2.34956 0
      vertex 35.1897 1.81433 0
    endloop
  endfacet
  facet normal 0.104528 0.994522 0
    outer loop
      vertex -32.1523 8.89225 2
      vertex -32.1523 8.89225 38
      vertex -25.0226 8.1429 2
    endloop
  endfacet
  facet normal 0.104528 0.994522 0
    outer loop
      vertex -25.0226 8.1429 2
      vertex -32.1523 8.89225 38
      vertex 35.1897 1.81433 38
    endloop
  endfacet
  facet normal 0.104528 0.994522 0
    outer loop
      vertex -25.0226 8.1429 2
      vertex 35.1897 1.81433 38
      vertex 35.1897 1.81433 0
    endloop
  endfacet
  facet normal 0.104528 0.994522 -0
    outer loop
      vertex -25.0226 8.1429 2
      vertex 35.1897 1.81433 0
      vertex -25.0226 8.1429 0
    endloop
  endfacet
  facet normal 0.987688 0.156435 0
    outer loop
      vertex -25.0226 8.1429 0
      vertex -25.3915 10.4721 0
      vertex -25.3915 10.4721 2
    endloop
  endfacet
  facet normal 0.987688 0.156435 -0
    outer loop
      vertex -25.0226 8.1429 2
      vertex -25.0226 8.1429 0
      vertex -25.3915 10.4721 2
    endloop
  endfacet
  facet normal 0.891007 0.45399 0
    outer loop
      vertex -25.3915 10.4721 0
      vertex -26.5279 12.7023 0
      vertex -26.5279 12.7023 2
    endloop
  endfacet
  facet normal 0.891007 0.45399 -0
    outer loop
      vertex -25.3915 10.4721 2
      vertex -25.3915 10.4721 0
      vertex -26.5279 12.7023 2
    endloop
  endfacet
  facet normal 0.707107 0.707107 0
    outer loop
      vertex -28.2977 14.4721 0
      vertex -28.2977 14.4721 2
      vertex -26.5279 12.7023 0
    endloop
  endfacet
  facet normal 0.707107 0.707107 0
    outer loop
      vertex -26.5279 12.7023 0
      vertex -28.2977 14.4721 2
      vertex -26.5279 12.7023 2
    endloop
  endfacet
  facet normal 0.45399 0.891007 0
    outer loop
      vertex -30.5279 15.6085 0
      vertex -30.5279 15.6085 2
      vertex -28.2977 14.4721 0
    endloop
  endfacet
  facet normal 0.45399 0.891007 0
    outer loop
      vertex -28.2977 14.4721 0
      vertex -30.5279 15.6085 2
      vertex -28.2977 14.4721 2
    endloop
  endfacet
  facet normal 0.156435 0.987688 0
    outer loop
      vertex -33 16 0
      vertex -33 16 2
      vertex -30.5279 15.6085 0
    endloop
  endfacet
  facet normal 0.156435 0.987688 0
    outer loop
      vertex -30.5279 15.6085 0
      vertex -33 16 2
      vertex -30.5279 15.6085 2
    endloop
  endfacet
  facet normal -0.156435 0.987688 0
    outer loop
      vertex -35.4721 15.6085 0
      vertex -35.4721 15.6085 2
      vertex -33 16 0
    endloop
  endfacet
  facet normal -0.156435 0.987688 0
    outer loop
      vertex -33 16 0
      vertex -35.4721 15.6085 2
      vertex -33 16 2
    endloop
  endfacet
  facet normal -0.45399 0.891007 0
    outer loop
      vertex -37.7023 14.4721 0
      vertex -37.7023 14.4721 2
      vertex -35.4721 15.6085 0
    endloop
  endfacet
  facet normal -0.45399 0.891007 0
    outer loop
      vertex -35.4721 15.6085 0
      vertex -37.7023 14.4721 2
      vertex -35.4721 15.6085 2
    endloop
  endfacet
  facet normal -0.707107 0.707107 0
    outer loop
      vertex -39.4721 12.7023 0
      vertex -39.4721 12.7023 2
      vertex -37.7023 14.4721 0
    endloop
  endfacet
  facet normal -0.707107 0.707107 0
    outer loop
      vertex -37.7023 14.4721 0
      vertex -39.4721 12.7023 2
      vertex -37.7023 14.4721 2
    endloop
  endfacet
  facet normal -0.891007 0.45399 0
    outer loop
      vertex -40.6085 10.4721 0
      vertex -40.6085 10.4721 2
      vertex -39.4721 12.7023 0
    endloop
  endfacet
  facet normal -0.891007 0.45399 0
    outer loop
      vertex -39.4721 12.7023 0
      vertex -40.6085 10.4721 2
      vertex -39.4721 12.7023 2
    endloop
  endfacet
  facet normal 0 0 1
    outer loop
      vertex -40.6085 10.4721 2
      vertex -41 8 2
      vertex -40.6085 5.52786 2
    endloop
  endfacet
  facet normal 0 0 1
    outer loop
      vertex -37.7023 1.52786 2
      vertex -40.6085 10.4721 2
      vertex -39.4721 3.29772 2
    endloop
  endfacet
  facet normal 0 0 1
    outer loop
      vertex -39.4721 3.29772 2
      vertex -40.6085 10.4721 2
      vertex -40.6085 5.52786 2
    endloop
  endfacet
  facet normal 0 0 1
    outer loop
      vertex -35.4721 0.391548 2
      vertex -40.6085 10.4721 2
      vertex -37.7023 1.52786 2
    endloop
  endfacet
  facet normal 0 0 1
    outer loop
      vertex -33 0 2
      vertex -40.6085 10.4721 2
      vertex -35.4721 0.391548 2
    endloop
  endfacet
  facet normal -0 0 1
    outer loop
      vertex -30.5279 0.391548 2
      vertex -40.6085 10.4721 2
      vertex -33 0 2
    endloop
  endfacet
  facet normal -0 0 1
    outer loop
      vertex -28.2977 1.52786 2
      vertex -40.6085 10.4721 2
      vertex -30.5279 0.391548 2
    endloop
  endfacet
  facet normal -0 -0 1
    outer loop
      vertex -33.047 5.55313 2
      vertex -40.6085 10.4721 2
      vertex -28.2977 1.52786 2
    endloop
  endfacet
  facet normal -0 0 1
    outer loop
      vertex -32.5092 5.49661 2
      vertex -33.047 5.55313 2
      vertex -32.5181 5.41142 2
    endloop
  endfacet
  facet normal -0 0 1
    outer loop
      vertex -26.5279 3.29772 2
      vertex -32.5181 5.41142 2
      vertex -28.2977 1.52786 2
    endloop
  endfacet
  facet normal 0 0 1
    outer loop
      vertex -33.8507 6.27684 2
      vertex -34.0756 7.33476 2
      vertex -40.6085 10.4721 2
    endloop
  endfacet
  facet normal 0 0 1
    outer loop
      vertex -33.047 5.55313 2
      vertex -33.8507 6.27684 2
      vertex -40.6085 10.4721 2
    endloop
  endfacet
  facet normal -0 -0 1
    outer loop
      vertex -32.5181 5.41142 2
      vertex -33.047 5.55313 2
      vertex -28.2977 1.52786 2
    endloop
  endfacet
  facet normal 0 0 1
    outer loop
      vertex -34.0756 7.33476 2
      vertex -33.6357 8.32282 2
      vertex -40.6085 10.4721 2
    endloop
  endfacet
  facet normal -0 0 1
    outer loop
      vertex -32.699 8.8636 2
      vertex -40.6085 10.4721 2
      vertex -33.6357 8.32282 2
    endloop
  endfacet
  facet normal 0 0 1
    outer loop
      vertex -32.1612 8.80707 2
      vertex -40.6085 10.4721 2
      vertex -32.699 8.8636 2
    endloop
  endfacet
  facet normal -0 0 1
    outer loop
      vertex -32.1523 8.89225 2
      vertex -40.6085 10.4721 2
      vertex -32.1612 8.80707 2
    endloop
  endfacet
  facet normal 0 0 1
    outer loop
      vertex -25.0226 8.1429 2
      vertex -40.6085 10.4721 2
      vertex -32.1523 8.89225 2
    endloop
  endfacet
  facet normal 0 -0 1
    outer loop
      vertex -25.3915 10.4721 2
      vertex -40.6085 10.4721 2
      vertex -25.0226 8.1429 2
    endloop
  endfacet
  facet normal 0 -0 1
    outer loop
      vertex -26.5279 12.7023 2
      vertex -40.6085 10.4721 2
      vertex -25.3915 10.4721 2
    endloop
  endfacet
  facet normal 0 -0 1
    outer loop
      vertex -28.2977 14.4721 2
      vertex -40.6085 10.4721 2
      vertex -26.5279 12.7023 2
    endloop
  endfacet
  facet normal 0 -0 1
    outer loop
      vertex -30.5279 15.6085 2
      vertex -40.6085 10.4721 2
      vertex -28.2977 14.4721 2
    endloop
  endfacet
  facet normal 0 -0 1
    outer loop
      vertex -33 16 2
      vertex -40.6085 10.4721 2
      vertex -30.5279 15.6085 2
    endloop
  endfacet
  facet normal 0 -0 1
    outer loop
      vertex -35.4721 15.6085 2
      vertex -40.6085 10.4721 2
      vertex -33 16 2
    endloop
  endfacet
  facet normal 0 -0 1
    outer loop
      vertex -37.7023 14.4721 2
      vertex -40.6085 10.4721 2
      vertex -35.4721 15.6085 2
    endloop
  endfacet
  facet normal 0 -0 1
    outer loop
      vertex -39.4721 12.7023 2
      vertex -40.6085 10.4721 2
      vertex -37.7023 14.4721 2
    endloop
  endfacet
  facet normal -0 0 1
    outer loop
      vertex -25.8101 4.70638 2
      vertex -32.5181 5.41142 2
      vertex -26.5279 3.29772 2
    endloop
  endfacet
  facet normal -0.994522 0.104528 0
    outer loop
      vertex -32.5181 5.41142 2
      vertex -32.5181 5.41142 38
      vertex -32.5092 5.49661 2
    endloop
  endfacet
  facet normal -0.994522 0.104528 0
    outer loop
      vertex -32.5092 5.49661 2
      vertex -32.5181 5.41142 38
      vertex -32.5092 5.49661 38
    endloop
  endfacet
  facet normal 0 -0 1
    outer loop
      vertex -32.1612 8.80707 38
      vertex -33.6357 8.32282 38
      vertex 35.1897 1.81433 38
    endloop
  endfacet
  facet normal 0 0 1
    outer loop
      vertex -35.6258 29.0286 38
      vertex -35.96 28 38
      vertex -35.6258 26.9714 38
    endloop
  endfacet
  facet normal -0 0 1
    outer loop
      vertex -34.21 26.3357 38
      vertex -35.6258 29.0286 38
      vertex -34.7508 26.3357 38
    endloop
  endfacet
  facet normal 0 0 1
    outer loop
      vertex -34.7508 26.3357 38
      vertex -35.6258 29.0286 38
      vertex -35.6258 26.9714 38
    endloop
  endfacet
  facet normal 0 0 1
    outer loop
      vertex 33.71 26.25 38
      vertex -35.6258 29.0286 38
      vertex -34.21 26.3357 38
    endloop
  endfacet
  facet normal -0 0 1
    outer loop
      vertex 33.71 26.25 38
      vertex -34.21 26.3357 38
      vertex -34.21 26.25 38
    endloop
  endfacet
  facet normal 0 0 1
    outer loop
      vertex 34.9792 26.2258 38
      vertex -35.6258 29.0286 38
      vertex 33.71 26.25 38
    endloop
  endfacet
  facet normal -0 0 1
    outer loop
      vertex 34.9792 26.2258 38
      vertex 33.71 26.25 38
      vertex 33.71 26.146 38
    endloop
  endfacet
  facet normal -0 0 1
    outer loop
      vertex 42.6493 27.2982 38
      vertex -35.6258 29.0286 38
      vertex 34.9792 26.2258 38
    endloop
  endfacet
  facet normal 0 0 1
    outer loop
      vertex 45.6913 24.7816 38
      vertex 34.9792 26.2258 38
      vertex 37.9955 25.6504 38
    endloop
  endfacet
  facet normal 0 0 1
    outer loop
      vertex 48.0118 21.5876 38
      vertex 37.9955 25.6504 38
      vertex 40.7739 24.343 38
    endloop
  endfacet
  facet normal 0 0 1
    outer loop
      vertex 49.4652 17.9169 38
      vertex 40.7739 24.343 38
      vertex 43.1399 22.3857 38
    endloop
  endfacet
  facet normal 0 0 1
    outer loop
      vertex 49.96 14 38
      vertex 43.1399 22.3857 38
      vertex 44.9448 19.9015 38
    endloop
  endfacet
  facet normal 0 0 1
    outer loop
      vertex 49.4652 10.0831 38
      vertex 44.9448 19.9015 38
      vertex 46.0751 17.0465 38
    endloop
  endfacet
  facet normal 0 0 1
    outer loop
      vertex 48.0118 6.41238 38
      vertex 46.0751 17.0465 38
      vertex 46.46 14 38
    endloop
  endfacet
  facet normal 0 0 1
    outer loop
      vertex 45.6913 3.21838 38
      vertex 46.46 14 38
      vertex 46.0751 10.9535 38
    endloop
  endfacet
  facet normal 0 0 1
    outer loop
      vertex 42.6493 0.701835 38
      vertex 46.0751 10.9535 38
      vertex 44.9448 8.09852 38
    endloop
  endfacet
  facet normal 0 0 1
    outer loop
      vertex 39.077 -0.97914 38
      vertex 44.9448 8.09852 38
      vertex 43.1399 5.6143 38
    endloop
  endfacet
  facet normal 0 0 1
    outer loop
      vertex 35.199 -1.71892 38
      vertex 43.1399 5.6143 38
      vertex 40.7739 3.65698 38
    endloop
  endfacet
  facet normal 0 0 1
    outer loop
      vertex 33.71 -1.54943 38
      vertex 40.7739 3.65698 38
      vertex 37.9955 2.34956 38
    endloop
  endfacet
  facet normal 0 0 1
    outer loop
      vertex 33.71 -1.54943 38
      vertex 37.9955 2.34956 38
      vertex 35.1897 1.81433 38
    endloop
  endfacet
  facet normal 0 0 1
    outer loop
      vertex -32.1612 8.80707 38
      vertex 35.1897 1.81433 38
      vertex -32.1523 8.89225 38
    endloop
  endfacet
  facet normal 0 -0 1
    outer loop
      vertex -32.699 8.8636 38
      vertex -33.6357 8.32282 38
      vertex -32.1612 8.80707 38
    endloop
  endfacet
  facet normal 0 -0 1
    outer loop
      vertex -32.5092 5.49661 38
      vertex -32.5181 5.41142 38
      vertex 35.1897 1.81433 38
    endloop
  endfacet
  facet normal 0 -0 1
    outer loop
      vertex -33.6357 8.32282 38
      vertex -34.0756 7.33476 38
      vertex 35.1897 1.81433 38
    endloop
  endfacet
  facet normal 0 0 1
    outer loop
      vertex -34.0756 7.33476 38
      vertex -33.8507 6.27684 38
      vertex 35.1897 1.81433 38
    endloop
  endfacet
  facet normal 0 0 1
    outer loop
      vertex -33.8507 6.27684 38
      vertex -33.047 5.55313 38
      vertex 35.1897 1.81433 38
    endloop
  endfacet
  facet normal 0 0 1
    outer loop
      vertex -33.047 5.55313 38
      vertex -32.5092 5.49661 38
      vertex 35.1897 1.81433 38
    endloop
  endfacet
  facet normal -0 0 1
    outer loop
      vertex 34.21 29.6567 38
      vertex 34.21 29.75 38
      vertex -35.6258 29.0286 38
    endloop
  endfacet
  facet normal 0 0 1
    outer loop
      vertex -32.5181 5.41142 38
      vertex 33.71 -1.54943 38
      vertex 35.1897 1.81433 38
    endloop
  endfacet
  facet normal 0 -0 1
    outer loop
      vertex 33.71 -1.54943 38
      vertex 33.71 -1.62524 38
      vertex 40.7739 3.65698 38
    endloop
  endfacet
  facet normal 0 0 1
    outer loop
      vertex 33.71 -1.62524 38
      vertex 35.199 -1.71892 38
      vertex 40.7739 3.65698 38
    endloop
  endfacet
  facet normal 0 0 1
    outer loop
      vertex 35.199 -1.71892 38
      vertex 35.2429 -1.71054 38
      vertex 43.1399 5.6143 38
    endloop
  endfacet
  facet normal 0 0 1
    outer loop
      vertex 35.2429 -1.71054 38
      vertex 35.5361 -1.65461 38
      vertex 43.1399 5.6143 38
    endloop
  endfacet
  facet normal 0 0 1
    outer loop
      vertex 35.2429 -1.71054 38
      vertex 35.5271 -1.74041 38
      vertex 35.5361 -1.65461 38
    endloop
  endfacet
  facet normal 0 0 1
    outer loop
      vertex 39.077 -0.97914 38
      vertex 42.6493 0.701835 38
      vertex 44.9448 8.09852 38
    endloop
  endfacet
  facet normal 0 0 1
    outer loop
      vertex 42.6493 0.701835 38
      vertex 45.6913 3.21838 38
      vertex 46.0751 10.9535 38
    endloop
  endfacet
  facet normal 0 0 1
    outer loop
      vertex 45.6913 3.21838 38
      vertex 48.0118 6.41238 38
      vertex 46.46 14 38
    endloop
  endfacet
  facet normal 0 0 1
    outer loop
      vertex 48.0118 6.41238 38
      vertex 49.4652 10.0831 38
      vertex 46.0751 17.0465 38
    endloop
  endfacet
  facet normal 0 0 1
    outer loop
      vertex 49.4652 10.0831 38
      vertex 49.96 14 38
      vertex 44.9448 19.9015 38
    endloop
  endfacet
  facet normal 0 0 1
    outer loop
      vertex 49.96 14 38
      vertex 49.4652 17.9169 38
      vertex 43.1399 22.3857 38
    endloop
  endfacet
  facet normal 0 0 1
    outer loop
      vertex 49.4652 17.9169 38
      vertex 48.0118 21.5876 38
      vertex 40.7739 24.343 38
    endloop
  endfacet
  facet normal 0 0 1
    outer loop
      vertex 48.0118 21.5876 38
      vertex 45.6913 24.7816 38
      vertex 37.9955 25.6504 38
    endloop
  endfacet
  facet normal 0 0 1
    outer loop
      vertex 45.6913 24.7816 38
      vertex 42.6493 27.2982 38
      vertex 34.9792 26.2258 38
    endloop
  endfacet
  facet normal 0 0 1
    outer loop
      vertex 42.6493 27.2982 38
      vertex 39.077 28.9791 38
      vertex -35.6258 29.0286 38
    endloop
  endfacet
  facet normal 0 0 1
    outer loop
      vertex -34.21 29.6643 38
      vertex -34.7508 29.6643 38
      vertex -35.6258 29.0286 38
    endloop
  endfacet
  facet normal 0 0 1
    outer loop
      vertex 39.077 28.9791 38
      vertex 34.21 29.6567 38
      vertex -35.6258 29.0286 38
    endloop
  endfacet
  facet normal 0 0 1
    outer loop
      vertex 39.077 28.9791 38
      vertex 35.199 29.7189 38
      vertex 34.21 29.6567 38
    endloop
  endfacet
  facet normal 0 0 1
    outer loop
      vertex 34.21 29.75 38
      vertex -34.21 29.6643 38
      vertex -35.6258 29.0286 38
    endloop
  endfacet
  facet normal 0 0 1
    outer loop
      vertex 34.21 29.75 38
      vertex -34.21 29.75 38
      vertex -34.21 29.6643 38
    endloop
  endfacet
  facet normal 0 0 1
    outer loop
      vertex 35.5361 -1.65461 38
      vertex 39.077 -0.97914 38
      vertex 43.1399 5.6143 38
    endloop
  endfacet
  facet normal -0.994522 0.104528 0
    outer loop
      vertex -32.1612 8.80707 2
      vertex -32.1612 8.80707 38
      vertex -32.1523 8.89225 2
    endloop
  endfacet
  facet normal -0.994522 0.104528 0
    outer loop
      vertex -32.1523 8.89225 2
      vertex -32.1612 8.80707 38
      vertex -32.1523 8.89225 38
    endloop
  endfacet
  facet normal 0.104528 0.994522 0
    outer loop
      vertex -32.699 8.8636 2
      vertex -32.699 8.8636 38
      vertex -32.1612 8.80707 2
    endloop
  endfacet
  facet normal 0.104528 0.994522 0
    outer loop
      vertex -32.1612 8.80707 2
      vertex -32.699 8.8636 38
      vertex -32.1612 8.80707 38
    endloop
  endfacet
  facet normal -0.5 0.866025 0
    outer loop
      vertex -33.6357 8.32282 2
      vertex -33.6357 8.32282 38
      vertex -32.699 8.8636 2
    endloop
  endfacet
  facet normal -0.5 0.866025 0
    outer loop
      vertex -32.699 8.8636 2
      vertex -33.6357 8.32282 38
      vertex -32.699 8.8636 38
    endloop
  endfacet
  facet normal -0.913546 0.406736 0
    outer loop
      vertex -34.0756 7.33476 2
      vertex -34.0756 7.33476 38
      vertex -33.6357 8.32282 2
    endloop
  endfacet
  facet normal -0.913546 0.406736 0
    outer loop
      vertex -33.6357 8.32282 2
      vertex -34.0756 7.33476 38
      vertex -33.6357 8.32282 38
    endloop
  endfacet
  facet normal -0.978148 -0.207912 -0
    outer loop
      vertex -34.0756 7.33476 2
      vertex -33.8507 6.27684 2
      vertex -34.0756 7.33476 38
    endloop
  endfacet
  facet normal -0.978148 -0.207912 0
    outer loop
      vertex -34.0756 7.33476 38
      vertex -33.8507 6.27684 2
      vertex -33.8507 6.27684 38
    endloop
  endfacet
  facet normal -0.669131 -0.743145 0
    outer loop
      vertex -33.8507 6.27684 38
      vertex -33.8507 6.27684 2
      vertex -33.047 5.55313 2
    endloop
  endfacet
  facet normal -0.669131 -0.743145 0
    outer loop
      vertex -33.047 5.55313 38
      vertex -33.8507 6.27684 38
      vertex -33.047 5.55313 2
    endloop
  endfacet
  facet normal -0.104528 -0.994522 0
    outer loop
      vertex -33.047 5.55313 38
      vertex -33.047 5.55313 2
      vertex -32.5092 5.49661 2
    endloop
  endfacet
  facet normal -0.104528 -0.994522 0
    outer loop
      vertex -32.5092 5.49661 38
      vertex -33.047 5.55313 38
      vertex -32.5092 5.49661 2
    endloop
  endfacet
endsolid OpenSCAD_Model
