solid Default
  facet normal -7.071068e-01 -7.071068e-01 -0.000000e+00
    outer loop
      vertex -3.324564e+01 -1.736145e+01 0.000000e+00
      vertex -3.324564e+01 -1.736145e+01 3.559000e+01
      vertex -4.201377e+01 -8.593321e+00 0.000000e+00
    endloop
  endfacet
  facet normal -7.071068e-01 -7.071068e-01 -0.000000e+00
    outer loop
      vertex -4.201377e+01 -8.593321e+00 0.000000e+00
      vertex -3.324564e+01 -1.736145e+01 3.559000e+01
      vertex -4.201377e+01 -8.593321e+00 3.559000e+01
    endloop
  endfacet
  facet normal 7.071068e-01 -7.071068e-01 0.000000e+00
    outer loop
      vertex -3.324564e+01 -1.736145e+01 3.559000e+01
      vertex -3.324564e+01 -1.736145e+01 0.000000e+00
      vertex 1.513460e+01 3.101880e+01 0.000000e+00
    endloop
  endfacet
  facet normal 7.071068e-01 -7.071068e-01 0.000000e+00
    outer loop
      vertex 1.513460e+01 3.101880e+01 3.559000e+01
      vertex -3.324564e+01 -1.736145e+01 3.559000e+01
      vertex 1.513460e+01 3.101880e+01 0.000000e+00
    endloop
  endfacet
  facet normal 0.000000e+00 0.000000e+00 -1.000000e+00
    outer loop
      vertex -3.324564e+01 -1.736145e+01 0.000000e+00
      vertex -4.201377e+01 -8.593321e+00 0.000000e+00
      vertex 1.513460e+01 3.101880e+01 0.000000e+00
    endloop
  endfacet
  facet normal 0.000000e+00 0.000000e+00 -1.000000e+00
    outer loop
      vertex 1.513460e+01 3.101880e+01 0.000000e+00
      vertex -4.201377e+01 -8.593321e+00 0.000000e+00
      vertex 6.366480e+00 3.978693e+01 0.000000e+00
    endloop
  endfacet
  facet normal -7.071068e-01 7.071068e-01 0.000000e+00
    outer loop
      vertex 4.033029e+00 3.745347e+01 4.000000e+00
      vertex 6.366480e+00 3.978693e+01 0.000000e+00
      vertex -1.563868e+01 1.778176e+01 4.000000e+00
    endloop
  endfacet
  facet normal -7.071068e-01 7.071068e-01 0.000000e+00
    outer loop
      vertex -4.201377e+01 -8.593321e+00 0.000000e+00
      vertex -4.201377e+01 -8.593321e+00 3.559000e+01
      vertex -1.563868e+01 1.778176e+01 4.000000e+00
    endloop
  endfacet
  facet normal -7.071068e-01 7.071068e-01 0.000000e+00
    outer loop
      vertex -4.201377e+01 -8.593321e+00 0.000000e+00
      vertex -1.563868e+01 1.778176e+01 4.000000e+00
      vertex 6.366480e+00 3.978693e+01 0.000000e+00
    endloop
  endfacet
  facet normal -7.071068e-01 7.071068e-01 0.000000e+00
    outer loop
      vertex 6.366480e+00 3.978693e+01 0.000000e+00
      vertex 4.033029e+00 3.745347e+01 4.000000e+00
      vertex 4.033029e+00 3.745347e+01 3.559000e+01
    endloop
  endfacet
  facet normal -7.071068e-01 7.071068e-01 0.000000e+00
    outer loop
      vertex 6.366480e+00 3.978693e+01 0.000000e+00
      vertex 4.033029e+00 3.745347e+01 3.559000e+01
      vertex 6.366480e+00 3.978693e+01 3.559000e+01
    endloop
  endfacet
  facet normal -7.071068e-01 7.071068e-01 0.000000e+00
    outer loop
      vertex -1.563868e+01 1.778176e+01 4.000000e+00
      vertex -4.201377e+01 -8.593321e+00 3.559000e+01
      vertex -1.563868e+01 1.778176e+01 3.559000e+01
    endloop
  endfacet
  facet normal 0.000000e+00 0.000000e+00 1.000000e+00
    outer loop
      vertex 1.513460e+01 3.101880e+01 3.559000e+01
      vertex 6.366480e+00 3.978693e+01 3.559000e+01
      vertex 4.033029e+00 3.745347e+01 3.559000e+01
    endloop
  endfacet
  facet normal 0.000000e+00 0.000000e+00 1.000000e+00
    outer loop
      vertex 1.152836e+01 2.896819e+01 3.559000e+01
      vertex 1.513460e+01 3.101880e+01 3.559000e+01
      vertex 1.202333e+01 2.946316e+01 3.559000e+01
    endloop
  endfacet
  facet normal 0.000000e+00 0.000000e+00 1.000000e+00
    outer loop
      vertex 1.202333e+01 2.946316e+01 3.559000e+01
      vertex 1.513460e+01 3.101880e+01 3.559000e+01
      vertex 4.033029e+00 3.745347e+01 3.559000e+01
    endloop
  endfacet
  facet normal 0.000000e+00 0.000000e+00 1.000000e+00
    outer loop
      vertex -3.119503e+01 -1.375520e+01 3.559000e+01
      vertex 1.513460e+01 3.101880e+01 3.559000e+01
      vertex 1.152836e+01 2.896819e+01 3.559000e+01
    endloop
  endfacet
  facet normal 0.000000e+00 0.000000e+00 1.000000e+00
    outer loop
      vertex -3.324564e+01 -1.736145e+01 3.559000e+01
      vertex 1.513460e+01 3.101880e+01 3.559000e+01
      vertex -3.119503e+01 -1.375520e+01 3.559000e+01
    endloop
  endfacet
  facet normal 0.000000e+00 0.000000e+00 1.000000e+00
    outer loop
      vertex -4.201377e+01 -8.593321e+00 3.559000e+01
      vertex -3.119503e+01 -1.375520e+01 3.559000e+01
      vertex -3.840752e+01 -6.542711e+00 3.559000e+01
    endloop
  endfacet
  facet normal 0.000000e+00 0.000000e+00 1.000000e+00
    outer loop
      vertex -4.201377e+01 -8.593321e+00 3.559000e+01
      vertex -3.840752e+01 -6.542711e+00 3.559000e+01
      vertex -1.563868e+01 1.778176e+01 3.559000e+01
    endloop
  endfacet
  facet normal 0.000000e+00 0.000000e+00 1.000000e+00
    outer loop
      vertex -3.324564e+01 -1.736145e+01 3.559000e+01
      vertex -3.119503e+01 -1.375520e+01 3.559000e+01
      vertex -4.201377e+01 -8.593321e+00 3.559000e+01
    endloop
  endfacet
  facet normal 0.000000e+00 0.000000e+00 1.000000e+00
    outer loop
      vertex -1.486086e+01 1.700394e+01 3.559000e+01
      vertex -1.563868e+01 1.778176e+01 3.559000e+01
      vertex -3.840752e+01 -6.542711e+00 3.559000e+01
    endloop
  endfacet
  facet normal 7.071068e-01 7.071068e-01 0.000000e+00
    outer loop
      vertex 1.513460e+01 3.101880e+01 3.559000e+01
      vertex 1.513460e+01 3.101880e+01 0.000000e+00
      vertex 6.366480e+00 3.978693e+01 0.000000e+00
    endloop
  endfacet
  facet normal 7.071068e-01 7.071068e-01 0.000000e+00
    outer loop
      vertex 6.366480e+00 3.978693e+01 3.559000e+01
      vertex 1.513460e+01 3.101880e+01 3.559000e+01
      vertex 6.366480e+00 3.978693e+01 0.000000e+00
    endloop
  endfacet
  facet normal -7.071068e-01 -7.071068e-01 0.000000e+00
    outer loop
      vertex 4.033029e+00 3.745347e+01 3.559000e+01
      vertex 4.033029e+00 3.745347e+01 4.000000e+00
      vertex 1.202333e+01 2.946316e+01 3.559000e+01
    endloop
  endfacet
  facet normal -7.071068e-01 -7.071068e-01 0.000000e+00
    outer loop
      vertex 1.202333e+01 2.946316e+01 3.559000e+01
      vertex 4.033029e+00 3.745347e+01 4.000000e+00
      vertex 1.202333e+01 2.946316e+01 4.000000e+00
    endloop
  endfacet
  facet normal 0.000000e+00 0.000000e+00 1.000000e+00
    outer loop
      vertex 4.033029e+00 3.745347e+01 4.000000e+00
      vertex 1.152836e+01 2.896819e+01 4.000000e+00
      vertex 1.202333e+01 2.946316e+01 4.000000e+00
    endloop
  endfacet
  facet normal 0.000000e+00 0.000000e+00 1.000000e+00
    outer loop
      vertex -1.563868e+01 1.778176e+01 4.000000e+00
      vertex 1.152836e+01 2.896819e+01 4.000000e+00
      vertex 4.033029e+00 3.745347e+01 4.000000e+00
    endloop
  endfacet
  facet normal 0.000000e+00 0.000000e+00 1.000000e+00
    outer loop
      vertex -1.486086e+01 1.700394e+01 4.000000e+00
      vertex 1.152836e+01 2.896819e+01 4.000000e+00
      vertex -1.563868e+01 1.778176e+01 4.000000e+00
    endloop
  endfacet
  facet normal 0.000000e+00 0.000000e+00 1.000000e+00
    outer loop
      vertex -3.840752e+01 -6.542711e+00 4.000000e+00
      vertex 1.152836e+01 2.896819e+01 4.000000e+00
      vertex -1.486086e+01 1.700394e+01 4.000000e+00
    endloop
  endfacet
  facet normal 0.000000e+00 0.000000e+00 1.000000e+00
    outer loop
      vertex -3.119503e+01 -1.375520e+01 4.000000e+00
      vertex 1.152836e+01 2.896819e+01 4.000000e+00
      vertex -3.840752e+01 -6.542711e+00 4.000000e+00
    endloop
  endfacet
  facet normal 7.071068e-01 7.071068e-01 0.000000e+00
    outer loop
      vertex -1.563868e+01 1.778176e+01 4.000000e+00
      vertex -1.563868e+01 1.778176e+01 3.559000e+01
      vertex -1.486086e+01 1.700394e+01 3.559000e+01
    endloop
  endfacet
  facet normal 7.071068e-01 7.071068e-01 0.000000e+00
    outer loop
      vertex -1.486086e+01 1.700394e+01 4.000000e+00
      vertex -1.563868e+01 1.778176e+01 4.000000e+00
      vertex -1.486086e+01 1.700394e+01 3.559000e+01
    endloop
  endfacet
  facet normal 7.071068e-01 -7.071068e-01 0.000000e+00
    outer loop
      vertex -1.486086e+01 1.700394e+01 4.000000e+00
      vertex -1.486086e+01 1.700394e+01 3.559000e+01
      vertex -3.840752e+01 -6.542711e+00 3.559000e+01
    endloop
  endfacet
  facet normal 7.071068e-01 -7.071068e-01 0.000000e+00
    outer loop
      vertex -3.840752e+01 -6.542711e+00 4.000000e+00
      vertex -1.486086e+01 1.700394e+01 4.000000e+00
      vertex -3.840752e+01 -6.542711e+00 3.559000e+01
    endloop
  endfacet
  facet normal 7.071068e-01 7.071068e-01 0.000000e+00
    outer loop
      vertex -3.840752e+01 -6.542711e+00 4.000000e+00
      vertex -3.840752e+01 -6.542711e+00 3.559000e+01
      vertex -3.119503e+01 -1.375520e+01 3.559000e+01
    endloop
  endfacet
  facet normal 7.071068e-01 7.071068e-01 0.000000e+00
    outer loop
      vertex -3.119503e+01 -1.375520e+01 4.000000e+00
      vertex -3.840752e+01 -6.542711e+00 4.000000e+00
      vertex -3.119503e+01 -1.375520e+01 3.559000e+01
    endloop
  endfacet
  facet normal -7.071068e-01 7.071068e-01 0.000000e+00
    outer loop
      vertex 1.152836e+01 2.896819e+01 3.559000e+01
      vertex 1.152836e+01 2.896819e+01 4.000000e+00
      vertex -3.119503e+01 -1.375520e+01 3.559000e+01
    endloop
  endfacet
  facet normal -7.071068e-01 7.071068e-01 0.000000e+00
    outer loop
      vertex -3.119503e+01 -1.375520e+01 3.559000e+01
      vertex 1.152836e+01 2.896819e+01 4.000000e+00
      vertex -3.119503e+01 -1.375520e+01 4.000000e+00
    endloop
  endfacet
  facet normal -7.071068e-01 7.071068e-01 0.000000e+00
    outer loop
      vertex 1.202333e+01 2.946316e+01 3.559000e+01
      vertex 1.202333e+01 2.946316e+01 4.000000e+00
      vertex 1.152836e+01 2.896819e+01 3.559000e+01
    endloop
  endfacet
  facet normal -7.071068e-01 7.071068e-01 0.000000e+00
    outer loop
      vertex 1.152836e+01 2.896819e+01 3.559000e+01
      vertex 1.202333e+01 2.946316e+01 4.000000e+00
      vertex 1.152836e+01 2.896819e+01 4.000000e+00
    endloop
  endfacet
  facet normal -0.000000e+00 -0.000000e+00 -1.000000e+00
    outer loop
      vertex -2.266732e+01 -3.754227e+01 0.000000e+00
      vertex -2.413852e+01 -3.551734e+01 0.000000e+00
      vertex -2.064239e+01 -3.901347e+01 0.000000e+00
    endloop
  endfacet
  facet normal 0.000000e+00 0.000000e+00 -1.000000e+00
    outer loop
      vertex -2.064239e+01 -3.901347e+01 0.000000e+00
      vertex -2.413852e+01 -3.551734e+01 0.000000e+00
      vertex -2.491197e+01 -3.313690e+01 0.000000e+00
    endloop
  endfacet
  facet normal 0.000000e+00 0.000000e+00 -1.000000e+00
    outer loop
      vertex -2.064239e+01 -3.901347e+01 0.000000e+00
      vertex -2.491197e+01 -3.313690e+01 0.000000e+00
      vertex -2.491197e+01 -3.063394e+01 0.000000e+00
    endloop
  endfacet
  facet normal 0.000000e+00 0.000000e+00 -1.000000e+00
    outer loop
      vertex -2.064239e+01 -3.901347e+01 0.000000e+00
      vertex -2.491197e+01 -3.063394e+01 0.000000e+00
      vertex -2.413852e+01 -2.825350e+01 0.000000e+00
    endloop
  endfacet
  facet normal 0.000000e+00 0.000000e+00 -1.000000e+00
    outer loop
      vertex -2.064239e+01 -3.901347e+01 0.000000e+00
      vertex -2.413852e+01 -2.825350e+01 0.000000e+00
      vertex -2.266732e+01 -2.622856e+01 0.000000e+00
    endloop
  endfacet
  facet normal 0.000000e+00 0.000000e+00 -1.000000e+00
    outer loop
      vertex -2.064239e+01 -3.901347e+01 0.000000e+00
      vertex -2.266732e+01 -2.622856e+01 0.000000e+00
      vertex -2.064239e+01 -2.475737e+01 0.000000e+00
    endloop
  endfacet
  facet normal 0.000000e+00 0.000000e+00 -1.000000e+00
    outer loop
      vertex -2.064239e+01 -3.901347e+01 0.000000e+00
      vertex -2.064239e+01 -2.475737e+01 0.000000e+00
      vertex -1.826194e+01 -2.398391e+01 0.000000e+00
    endloop
  endfacet
  facet normal 0.000000e+00 0.000000e+00 -1.000000e+00
    outer loop
      vertex -2.064239e+01 -3.901347e+01 0.000000e+00
      vertex -1.826194e+01 -2.398391e+01 0.000000e+00
      vertex -1.575899e+01 -2.398391e+01 0.000000e+00
    endloop
  endfacet
  facet normal 0.000000e+00 0.000000e+00 -1.000000e+00
    outer loop
      vertex -2.064239e+01 -3.901347e+01 0.000000e+00
      vertex -1.575899e+01 -2.398391e+01 0.000000e+00
      vertex -1.337854e+01 -2.475737e+01 0.000000e+00
    endloop
  endfacet
  facet normal 0.000000e+00 0.000000e+00 -1.000000e+00
    outer loop
      vertex -2.064239e+01 -3.901347e+01 0.000000e+00
      vertex -1.337854e+01 -2.475737e+01 0.000000e+00
      vertex -1.147066e+01 -2.614353e+01 0.000000e+00
    endloop
  endfacet
  facet normal 0.000000e+00 0.000000e+00 -1.000000e+00
    outer loop
      vertex -2.064239e+01 -3.901347e+01 0.000000e+00
      vertex -1.147066e+01 -2.614353e+01 0.000000e+00
      vertex 3.558085e+01 1.195804e+01 0.000000e+00
    endloop
  endfacet
  facet normal 0.000000e+00 0.000000e+00 -1.000000e+00
    outer loop
      vertex 1.817047e+01 2.907073e+01 0.000000e+00
      vertex 1.732948e+01 2.811682e+01 0.000000e+00
      vertex 1.725593e+01 2.819038e+01 0.000000e+00
    endloop
  endfacet
  facet normal 0.000000e+00 0.000000e+00 -1.000000e+00
    outer loop
      vertex -3.077077e+01 -1.983632e+01 0.000000e+00
      vertex -3.083133e+01 -1.977576e+01 0.000000e+00
      vertex 1.725593e+01 2.819038e+01 0.000000e+00
    endloop
  endfacet
  facet normal 0.000000e+00 0.000000e+00 -1.000000e+00
    outer loop
      vertex -3.083133e+01 -1.977576e+01 0.000000e+00
      vertex -3.121372e+01 -2.015814e+01 0.000000e+00
      vertex -3.228197e+01 -2.032734e+01 0.000000e+00
    endloop
  endfacet
  facet normal 0.000000e+00 0.000000e+00 -1.000000e+00
    outer loop
      vertex -3.083133e+01 -1.977576e+01 0.000000e+00
      vertex -3.228197e+01 -2.032734e+01 0.000000e+00
      vertex 1.725593e+01 2.819038e+01 0.000000e+00
    endloop
  endfacet
  facet normal 0.000000e+00 0.000000e+00 -1.000000e+00
    outer loop
      vertex 1.725593e+01 2.819038e+01 0.000000e+00
      vertex -3.228197e+01 -2.032734e+01 0.000000e+00
      vertex -3.324564e+01 -1.983632e+01 0.000000e+00
    endloop
  endfacet
  facet normal 0.000000e+00 0.000000e+00 -1.000000e+00
    outer loop
      vertex 1.725593e+01 2.819038e+01 0.000000e+00
      vertex -3.324564e+01 -1.983632e+01 0.000000e+00
      vertex 1.817047e+01 2.907073e+01 0.000000e+00
    endloop
  endfacet
  facet normal 0.000000e+00 0.000000e+00 -1.000000e+00
    outer loop
      vertex 1.817047e+01 2.907073e+01 0.000000e+00
      vertex -3.324564e+01 -1.983632e+01 0.000000e+00
      vertex -3.373666e+01 -1.887264e+01 0.000000e+00
    endloop
  endfacet
  facet normal 0.000000e+00 0.000000e+00 -1.000000e+00
    outer loop
      vertex 1.817047e+01 2.907073e+01 0.000000e+00
      vertex -3.373666e+01 -1.887264e+01 0.000000e+00
      vertex -3.356747e+01 -1.780440e+01 0.000000e+00
    endloop
  endfacet
  facet normal 0.000000e+00 0.000000e+00 -1.000000e+00
    outer loop
      vertex 1.817047e+01 2.907073e+01 0.000000e+00
      vertex -3.356747e+01 -1.780440e+01 0.000000e+00
      vertex -3.318508e+01 -1.742201e+01 0.000000e+00
    endloop
  endfacet
  facet normal 0.000000e+00 0.000000e+00 -1.000000e+00
    outer loop
      vertex 1.817047e+01 2.907073e+01 0.000000e+00
      vertex -3.318508e+01 -1.742201e+01 0.000000e+00
      vertex -3.324564e+01 -1.736145e+01 0.000000e+00
    endloop
  endfacet
  facet normal 0.000000e+00 0.000000e+00 -1.000000e+00
    outer loop
      vertex 1.520058e+01 3.095283e+01 0.000000e+00
      vertex -3.324564e+01 -1.736145e+01 0.000000e+00
      vertex 1.513460e+01 3.101880e+01 0.000000e+00
    endloop
  endfacet
  facet normal 0.000000e+00 0.000000e+00 -1.000000e+00
    outer loop
      vertex 1.817047e+01 2.907073e+01 0.000000e+00
      vertex -3.324564e+01 -1.736145e+01 0.000000e+00
      vertex 1.520058e+01 3.095283e+01 0.000000e+00
    endloop
  endfacet
  facet normal 0.000000e+00 0.000000e+00 -1.000000e+00
    outer loop
      vertex -9.597514e+00 -2.913034e+01 0.000000e+00
      vertex 4.030489e+01 1.273152e+01 0.000000e+00
      vertex 3.827870e+01 9.750079e+00 0.000000e+00
    endloop
  endfacet
  facet normal 0.000000e+00 0.000000e+00 -1.000000e+00
    outer loop
      vertex 2.359928e+01 3.183685e+01 0.000000e+00
      vertex 1.585587e+01 3.169612e+01 0.000000e+00
      vertex 2.665632e+01 3.212582e+01 0.000000e+00
    endloop
  endfacet
  facet normal 0.000000e+00 0.000000e+00 -1.000000e+00
    outer loop
      vertex 2.665632e+01 3.212582e+01 0.000000e+00
      vertex 1.585587e+01 3.169612e+01 0.000000e+00
      vertex 1.912119e+01 3.391522e+01 0.000000e+00
    endloop
  endfacet
  facet normal -0.000000e+00 -0.000000e+00 -1.000000e+00
    outer loop
      vertex 2.665632e+01 3.212582e+01 0.000000e+00
      vertex 1.912119e+01 3.391522e+01 0.000000e+00
      vertex 2.968918e+01 3.164546e+01 0.000000e+00
    endloop
  endfacet
  facet normal 0.000000e+00 0.000000e+00 -1.000000e+00
    outer loop
      vertex 2.968918e+01 3.164546e+01 0.000000e+00
      vertex 1.912119e+01 3.391522e+01 0.000000e+00
      vertex 2.283578e+01 3.525256e+01 0.000000e+00
    endloop
  endfacet
  facet normal -0.000000e+00 -0.000000e+00 -1.000000e+00
    outer loop
      vertex 2.968918e+01 3.164546e+01 0.000000e+00
      vertex 2.283578e+01 3.525256e+01 0.000000e+00
      vertex 3.250729e+01 3.042596e+01 0.000000e+00
    endloop
  endfacet
  facet normal 0.000000e+00 0.000000e+00 -1.000000e+00
    outer loop
      vertex 3.250729e+01 3.042596e+01 0.000000e+00
      vertex 2.283578e+01 3.525256e+01 0.000000e+00
      vertex 2.676626e+01 3.562409e+01 0.000000e+00
    endloop
  endfacet
  facet normal -0.000000e+00 -0.000000e+00 -1.000000e+00
    outer loop
      vertex 3.250729e+01 3.042596e+01 0.000000e+00
      vertex 2.676626e+01 3.562409e+01 0.000000e+00
      vertex 3.493359e+01 2.854393e+01 0.000000e+00
    endloop
  endfacet
  facet normal 0.000000e+00 0.000000e+00 -1.000000e+00
    outer loop
      vertex 3.493359e+01 2.854393e+01 0.000000e+00
      vertex 2.676626e+01 3.562409e+01 0.000000e+00
      vertex 3.066565e+01 3.500650e+01 0.000000e+00
    endloop
  endfacet
  facet normal -0.000000e+00 -0.000000e+00 -1.000000e+00
    outer loop
      vertex 3.493359e+01 2.854393e+01 0.000000e+00
      vertex 3.066565e+01 3.500650e+01 0.000000e+00
      vertex 3.681563e+01 2.611763e+01 0.000000e+00
    endloop
  endfacet
  facet normal 0.000000e+00 0.000000e+00 -1.000000e+00
    outer loop
      vertex 3.681563e+01 2.611763e+01 0.000000e+00
      vertex 3.066565e+01 3.500650e+01 0.000000e+00
      vertex 3.428894e+01 3.343856e+01 0.000000e+00
    endloop
  endfacet
  facet normal -0.000000e+00 -0.000000e+00 -1.000000e+00
    outer loop
      vertex 3.681563e+01 2.611763e+01 0.000000e+00
      vertex 3.428894e+01 3.343856e+01 0.000000e+00
      vertex 3.803513e+01 2.329951e+01 0.000000e+00
    endloop
  endfacet
  facet normal 0.000000e+00 0.000000e+00 -1.000000e+00
    outer loop
      vertex 3.803513e+01 2.329951e+01 0.000000e+00
      vertex 3.428894e+01 3.343856e+01 0.000000e+00
      vertex 3.740847e+01 3.101880e+01 0.000000e+00
    endloop
  endfacet
  facet normal -0.000000e+00 -0.000000e+00 -1.000000e+00
    outer loop
      vertex 3.803513e+01 2.329951e+01 0.000000e+00
      vertex 3.740847e+01 3.101880e+01 0.000000e+00
      vertex 3.851549e+01 2.026665e+01 0.000000e+00
    endloop
  endfacet
  facet normal 0.000000e+00 0.000000e+00 -1.000000e+00
    outer loop
      vertex 3.851549e+01 2.026665e+01 0.000000e+00
      vertex 3.740847e+01 3.101880e+01 0.000000e+00
      vertex 3.982822e+01 2.789927e+01 0.000000e+00
    endloop
  endfacet
  facet normal 0.000000e+00 0.000000e+00 -1.000000e+00
    outer loop
      vertex 3.851549e+01 2.026665e+01 0.000000e+00
      vertex 3.982822e+01 2.789927e+01 0.000000e+00
      vertex 3.822652e+01 1.720961e+01 0.000000e+00
    endloop
  endfacet
  facet normal 0.000000e+00 0.000000e+00 -1.000000e+00
    outer loop
      vertex 3.822652e+01 1.720961e+01 0.000000e+00
      vertex 3.982822e+01 2.789927e+01 0.000000e+00
      vertex 4.139616e+01 2.427598e+01 0.000000e+00
    endloop
  endfacet
  facet normal 0.000000e+00 0.000000e+00 -1.000000e+00
    outer loop
      vertex 3.822652e+01 1.720961e+01 0.000000e+00
      vertex 4.139616e+01 2.427598e+01 0.000000e+00
      vertex 3.718637e+01 1.432049e+01 0.000000e+00
    endloop
  endfacet
  facet normal 0.000000e+00 0.000000e+00 -1.000000e+00
    outer loop
      vertex 3.718637e+01 1.432049e+01 0.000000e+00
      vertex 4.139616e+01 2.427598e+01 0.000000e+00
      vertex 4.201377e+01 2.037659e+01 0.000000e+00
    endloop
  endfacet
  facet normal 0.000000e+00 0.000000e+00 -1.000000e+00
    outer loop
      vertex 3.718637e+01 1.432049e+01 0.000000e+00
      vertex 4.201377e+01 2.037659e+01 0.000000e+00
      vertex 3.558085e+01 1.195804e+01 0.000000e+00
    endloop
  endfacet
  facet normal 0.000000e+00 0.000000e+00 -1.000000e+00
    outer loop
      vertex 3.558085e+01 1.195804e+01 0.000000e+00
      vertex 4.201377e+01 2.037659e+01 0.000000e+00
      vertex 4.164223e+01 1.644611e+01 0.000000e+00
    endloop
  endfacet
  facet normal 0.000000e+00 0.000000e+00 -1.000000e+00
    outer loop
      vertex -9.108962e+00 -3.063394e+01 0.000000e+00
      vertex -2.064239e+01 -3.901347e+01 0.000000e+00
      vertex -9.597514e+00 -2.913034e+01 0.000000e+00
    endloop
  endfacet
  facet normal 0.000000e+00 0.000000e+00 -1.000000e+00
    outer loop
      vertex 3.811092e+01 9.503188e+00 0.000000e+00
      vertex 3.827870e+01 9.750079e+00 0.000000e+00
      vertex 3.833300e+01 9.683028e+00 0.000000e+00
    endloop
  endfacet
  facet normal 0.000000e+00 0.000000e+00 -1.000000e+00
    outer loop
      vertex 3.691309e+01 8.533206e+00 0.000000e+00
      vertex 3.827870e+01 9.750079e+00 0.000000e+00
      vertex 3.811092e+01 9.503188e+00 0.000000e+00
    endloop
  endfacet
  facet normal 0.000000e+00 0.000000e+00 -1.000000e+00
    outer loop
      vertex 3.691309e+01 8.533206e+00 0.000000e+00
      vertex 3.808579e+01 9.466207e+00 0.000000e+00
      vertex 3.696670e+01 8.479598e+00 0.000000e+00
    endloop
  endfacet
  facet normal 0.000000e+00 0.000000e+00 -1.000000e+00
    outer loop
      vertex 3.691309e+01 8.533206e+00 0.000000e+00
      vertex 3.811092e+01 9.503188e+00 0.000000e+00
      vertex 3.808579e+01 9.466207e+00 0.000000e+00
    endloop
  endfacet
  facet normal 0.000000e+00 0.000000e+00 -1.000000e+00
    outer loop
      vertex -9.597514e+00 -2.913034e+01 0.000000e+00
      vertex 3.827870e+01 9.750079e+00 0.000000e+00
      vertex 3.691309e+01 8.533206e+00 0.000000e+00
    endloop
  endfacet
  facet normal 0.000000e+00 0.000000e+00 -1.000000e+00
    outer loop
      vertex -9.597514e+00 -2.913034e+01 0.000000e+00
      vertex 4.164223e+01 1.644611e+01 0.000000e+00
      vertex 4.030489e+01 1.273152e+01 0.000000e+00
    endloop
  endfacet
  facet normal 0.000000e+00 0.000000e+00 -1.000000e+00
    outer loop
      vertex 3.558085e+01 1.195804e+01 0.000000e+00
      vertex 4.164223e+01 1.644611e+01 0.000000e+00
      vertex -9.597514e+00 -2.913034e+01 0.000000e+00
    endloop
  endfacet
  facet normal 0.000000e+00 0.000000e+00 -1.000000e+00
    outer loop
      vertex 3.558085e+01 1.195804e+01 0.000000e+00
      vertex -9.597514e+00 -2.913034e+01 0.000000e+00
      vertex -2.064239e+01 -3.901347e+01 0.000000e+00
    endloop
  endfacet
  facet normal 0.000000e+00 0.000000e+00 -1.000000e+00
    outer loop
      vertex -2.064239e+01 -3.901347e+01 0.000000e+00
      vertex -9.108962e+00 -3.063394e+01 0.000000e+00
      vertex -9.108962e+00 -3.313690e+01 0.000000e+00
    endloop
  endfacet
  facet normal 0.000000e+00 0.000000e+00 -1.000000e+00
    outer loop
      vertex -9.108962e+00 -3.313690e+01 0.000000e+00
      vertex -9.882417e+00 -3.551734e+01 0.000000e+00
      vertex -2.064239e+01 -3.901347e+01 0.000000e+00
    endloop
  endfacet
  facet normal 0.000000e+00 0.000000e+00 -1.000000e+00
    outer loop
      vertex -2.064239e+01 -3.901347e+01 0.000000e+00
      vertex -9.882417e+00 -3.551734e+01 0.000000e+00
      vertex -1.135362e+01 -3.754227e+01 0.000000e+00
    endloop
  endfacet
  facet normal 0.000000e+00 0.000000e+00 -1.000000e+00
    outer loop
      vertex -2.064239e+01 -3.901347e+01 0.000000e+00
      vertex -1.135362e+01 -3.754227e+01 0.000000e+00
      vertex -1.337854e+01 -3.901347e+01 0.000000e+00
    endloop
  endfacet
  facet normal 0.000000e+00 0.000000e+00 -1.000000e+00
    outer loop
      vertex -2.064239e+01 -3.901347e+01 0.000000e+00
      vertex -1.337854e+01 -3.901347e+01 0.000000e+00
      vertex -1.575899e+01 -3.978693e+01 0.000000e+00
    endloop
  endfacet
  facet normal 0.000000e+00 0.000000e+00 -1.000000e+00
    outer loop
      vertex -2.064239e+01 -3.901347e+01 0.000000e+00
      vertex -1.575899e+01 -3.978693e+01 0.000000e+00
      vertex -1.826194e+01 -3.978693e+01 0.000000e+00
    endloop
  endfacet
  facet normal 0.000000e+00 0.000000e+00 -1.000000e+00
    outer loop
      vertex 1.585587e+01 3.169612e+01 0.000000e+00
      vertex 2.359928e+01 3.183685e+01 0.000000e+00
      vertex 2.071015e+01 3.079670e+01 0.000000e+00
    endloop
  endfacet
  facet normal 0.000000e+00 0.000000e+00 -1.000000e+00
    outer loop
      vertex 1.585587e+01 3.169612e+01 0.000000e+00
      vertex 2.071015e+01 3.079670e+01 0.000000e+00
      vertex 1.817047e+01 2.907073e+01 0.000000e+00
    endloop
  endfacet
  facet normal 0.000000e+00 0.000000e+00 -1.000000e+00
    outer loop
      vertex 1.585587e+01 3.169612e+01 0.000000e+00
      vertex 1.817047e+01 2.907073e+01 0.000000e+00
      vertex 1.520058e+01 3.095283e+01 0.000000e+00
    endloop
  endfacet
  facet normal -8.090171e-01 -5.877851e-01 -0.000000e+00
    outer loop
      vertex -2.266732e+01 -3.754227e+01 0.000000e+00
      vertex -2.266732e+01 -3.754227e+01 2.000000e+00
      vertex -2.413852e+01 -3.551734e+01 0.000000e+00
    endloop
  endfacet
  facet normal -8.090171e-01 -5.877851e-01 -0.000000e+00
    outer loop
      vertex -2.413852e+01 -3.551734e+01 0.000000e+00
      vertex -2.266732e+01 -3.754227e+01 2.000000e+00
      vertex -2.413852e+01 -3.551734e+01 2.000000e+00
    endloop
  endfacet
  facet normal -5.877851e-01 -8.090171e-01 0.000000e+00
    outer loop
      vertex -2.266732e+01 -3.754227e+01 2.000000e+00
      vertex -2.266732e+01 -3.754227e+01 0.000000e+00
      vertex -2.064239e+01 -3.901347e+01 0.000000e+00
    endloop
  endfacet
  facet normal -5.877851e-01 -8.090171e-01 0.000000e+00
    outer loop
      vertex -2.064239e+01 -3.901347e+01 2.000000e+00
      vertex -2.266732e+01 -3.754227e+01 2.000000e+00
      vertex -2.064239e+01 -3.901347e+01 0.000000e+00
    endloop
  endfacet
  facet normal -3.090169e-01 -9.510565e-01 0.000000e+00
    outer loop
      vertex -2.064239e+01 -3.901347e+01 2.000000e+00
      vertex -2.064239e+01 -3.901347e+01 0.000000e+00
      vertex -1.826194e+01 -3.978693e+01 0.000000e+00
    endloop
  endfacet
  facet normal -3.090169e-01 -9.510565e-01 0.000000e+00
    outer loop
      vertex -1.826194e+01 -3.978693e+01 2.000000e+00
      vertex -2.064239e+01 -3.901347e+01 2.000000e+00
      vertex -1.826194e+01 -3.978693e+01 0.000000e+00
    endloop
  endfacet
  facet normal 0.000000e+00 -1.000000e+00 0.000000e+00
    outer loop
      vertex -1.826194e+01 -3.978693e+01 2.000000e+00
      vertex -1.826194e+01 -3.978693e+01 0.000000e+00
      vertex -1.575899e+01 -3.978693e+01 0.000000e+00
    endloop
  endfacet
  facet normal 0.000000e+00 -1.000000e+00 0.000000e+00
    outer loop
      vertex -1.575899e+01 -3.978693e+01 2.000000e+00
      vertex -1.826194e+01 -3.978693e+01 2.000000e+00
      vertex -1.575899e+01 -3.978693e+01 0.000000e+00
    endloop
  endfacet
  facet normal 3.090169e-01 -9.510565e-01 0.000000e+00
    outer loop
      vertex -1.575899e+01 -3.978693e+01 2.000000e+00
      vertex -1.575899e+01 -3.978693e+01 0.000000e+00
      vertex -1.337854e+01 -3.901347e+01 0.000000e+00
    endloop
  endfacet
  facet normal 3.090169e-01 -9.510565e-01 0.000000e+00
    outer loop
      vertex -1.337854e+01 -3.901347e+01 2.000000e+00
      vertex -1.575899e+01 -3.978693e+01 2.000000e+00
      vertex -1.337854e+01 -3.901347e+01 0.000000e+00
    endloop
  endfacet
  facet normal 5.877851e-01 -8.090171e-01 0.000000e+00
    outer loop
      vertex -1.337854e+01 -3.901347e+01 2.000000e+00
      vertex -1.337854e+01 -3.901347e+01 0.000000e+00
      vertex -1.135362e+01 -3.754227e+01 0.000000e+00
    endloop
  endfacet
  facet normal 5.877851e-01 -8.090171e-01 0.000000e+00
    outer loop
      vertex -1.135362e+01 -3.754227e+01 2.000000e+00
      vertex -1.337854e+01 -3.901347e+01 2.000000e+00
      vertex -1.135362e+01 -3.754227e+01 0.000000e+00
    endloop
  endfacet
  facet normal 8.090171e-01 -5.877851e-01 0.000000e+00
    outer loop
      vertex -1.135362e+01 -3.754227e+01 2.000000e+00
      vertex -1.135362e+01 -3.754227e+01 0.000000e+00
      vertex -9.882417e+00 -3.551734e+01 0.000000e+00
    endloop
  endfacet
  facet normal 8.090171e-01 -5.877851e-01 0.000000e+00
    outer loop
      vertex -9.882417e+00 -3.551734e+01 2.000000e+00
      vertex -1.135362e+01 -3.754227e+01 2.000000e+00
      vertex -9.882417e+00 -3.551734e+01 0.000000e+00
    endloop
  endfacet
  facet normal 9.510565e-01 -3.090169e-01 0.000000e+00
    outer loop
      vertex -9.882417e+00 -3.551734e+01 2.000000e+00
      vertex -9.882417e+00 -3.551734e+01 0.000000e+00
      vertex -9.108962e+00 -3.313690e+01 0.000000e+00
    endloop
  endfacet
  facet normal 9.510565e-01 -3.090169e-01 0.000000e+00
    outer loop
      vertex -9.108962e+00 -3.313690e+01 2.000000e+00
      vertex -9.882417e+00 -3.551734e+01 2.000000e+00
      vertex -9.108962e+00 -3.313690e+01 0.000000e+00
    endloop
  endfacet
  facet normal 1.000000e+00 0.000000e+00 0.000000e+00
    outer loop
      vertex -9.108962e+00 -3.313690e+01 2.000000e+00
      vertex -9.108962e+00 -3.313690e+01 0.000000e+00
      vertex -9.108962e+00 -3.063394e+01 0.000000e+00
    endloop
  endfacet
  facet normal 1.000000e+00 0.000000e+00 0.000000e+00
    outer loop
      vertex -9.108962e+00 -3.063394e+01 2.000000e+00
      vertex -9.108962e+00 -3.313690e+01 2.000000e+00
      vertex -9.108962e+00 -3.063394e+01 0.000000e+00
    endloop
  endfacet
  facet normal 9.510565e-01 3.090169e-01 0.000000e+00
    outer loop
      vertex -9.108962e+00 -3.063394e+01 2.000000e+00
      vertex -9.108962e+00 -3.063394e+01 0.000000e+00
      vertex -9.597514e+00 -2.913034e+01 0.000000e+00
    endloop
  endfacet
  facet normal 9.510565e-01 3.090169e-01 0.000000e+00
    outer loop
      vertex -9.597514e+00 -2.913034e+01 2.000000e+00
      vertex -9.108962e+00 -3.063394e+01 2.000000e+00
      vertex -9.597514e+00 -2.913034e+01 0.000000e+00
    endloop
  endfacet
  facet normal 6.293202e-01 -7.771462e-01 0.000000e+00
    outer loop
      vertex -1.483932e+01 -3.337507e+01 3.800000e+01
      vertex -1.483932e+01 -3.337507e+01 2.000000e+00
      vertex -9.597514e+00 -2.913034e+01 2.000000e+00
    endloop
  endfacet
  facet normal 6.293202e-01 -7.771462e-01 0.000000e+00
    outer loop
      vertex 3.691309e+01 8.533206e+00 0.000000e+00
      vertex -1.483932e+01 -3.337507e+01 3.800000e+01
      vertex -9.597514e+00 -2.913034e+01 2.000000e+00
    endloop
  endfacet
  facet normal 6.293202e-01 -7.771462e-01 0.000000e+00
    outer loop
      vertex -9.597514e+00 -2.913034e+01 0.000000e+00
      vertex 3.691309e+01 8.533206e+00 0.000000e+00
      vertex -9.597514e+00 -2.913034e+01 2.000000e+00
    endloop
  endfacet
  facet normal 6.293202e-01 -7.771462e-01 0.000000e+00
    outer loop
      vertex 3.691309e+01 8.533206e+00 0.000000e+00
      vertex 3.691309e+01 8.533206e+00 3.800000e+01
      vertex -1.483932e+01 -3.337507e+01 3.800000e+01
    endloop
  endfacet
  facet normal -7.071068e-01 -7.071068e-01 0.000000e+00
    outer loop
      vertex 3.691309e+01 8.533206e+00 3.800000e+01
      vertex 3.691309e+01 8.533206e+00 0.000000e+00
      vertex 3.696670e+01 8.479598e+00 3.800000e+01
    endloop
  endfacet
  facet normal -7.071068e-01 -7.071068e-01 0.000000e+00
    outer loop
      vertex 3.696670e+01 8.479598e+00 3.800000e+01
      vertex 3.691309e+01 8.533206e+00 0.000000e+00
      vertex 3.696670e+01 8.479598e+00 0.000000e+00
    endloop
  endfacet
  facet normal 6.613120e-01 -7.501110e-01 0.000000e+00
    outer loop
      vertex 3.696670e+01 8.479598e+00 3.800000e+01
      vertex 3.696670e+01 8.479598e+00 0.000000e+00
      vertex 3.808579e+01 9.466207e+00 0.000000e+00
    endloop
  endfacet
  facet normal 6.613120e-01 -7.501110e-01 0.000000e+00
    outer loop
      vertex 3.808579e+01 9.466207e+00 3.800000e+01
      vertex 3.696670e+01 8.479598e+00 3.800000e+01
      vertex 3.808579e+01 9.466207e+00 0.000000e+00
    endloop
  endfacet
  facet normal 8.270809e-01 -5.620829e-01 0.000000e+00
    outer loop
      vertex 3.808579e+01 9.466207e+00 3.800000e+01
      vertex 3.808579e+01 9.466207e+00 0.000000e+00
      vertex 3.811092e+01 9.503188e+00 0.000000e+00
    endloop
  endfacet
  facet normal 8.270809e-01 -5.620829e-01 0.000000e+00
    outer loop
      vertex 3.811092e+01 9.503188e+00 3.800000e+01
      vertex 3.808579e+01 9.466207e+00 3.800000e+01
      vertex 3.811092e+01 9.503188e+00 0.000000e+00
    endloop
  endfacet
  facet normal 6.293202e-01 -7.771462e-01 0.000000e+00
    outer loop
      vertex 3.811092e+01 9.503188e+00 3.800000e+01
      vertex 3.811092e+01 9.503188e+00 0.000000e+00
      vertex 3.833300e+01 9.683028e+00 0.000000e+00
    endloop
  endfacet
  facet normal 6.293202e-01 -7.771462e-01 0.000000e+00
    outer loop
      vertex 3.833300e+01 9.683028e+00 3.800000e+01
      vertex 3.811092e+01 9.503188e+00 3.800000e+01
      vertex 3.833300e+01 9.683028e+00 0.000000e+00
    endloop
  endfacet
  facet normal 7.771462e-01 6.293202e-01 0.000000e+00
    outer loop
      vertex 3.833300e+01 9.683028e+00 3.800000e+01
      vertex 3.833300e+01 9.683028e+00 0.000000e+00
      vertex 3.827870e+01 9.750079e+00 0.000000e+00
    endloop
  endfacet
  facet normal 7.771462e-01 6.293202e-01 0.000000e+00
    outer loop
      vertex 3.827870e+01 9.750079e+00 3.800000e+01
      vertex 3.833300e+01 9.683028e+00 3.800000e+01
      vertex 3.827870e+01 9.750079e+00 0.000000e+00
    endloop
  endfacet
  facet normal 8.270809e-01 -5.620829e-01 0.000000e+00
    outer loop
      vertex 3.827870e+01 9.750079e+00 3.800000e+01
      vertex 3.827870e+01 9.750079e+00 0.000000e+00
      vertex 4.030489e+01 1.273152e+01 0.000000e+00
    endloop
  endfacet
  facet normal 8.270809e-01 -5.620829e-01 0.000000e+00
    outer loop
      vertex 4.030489e+01 1.273152e+01 3.800000e+01
      vertex 3.827870e+01 9.750079e+00 3.800000e+01
      vertex 4.030489e+01 1.273152e+01 0.000000e+00
    endloop
  endfacet
  facet normal 9.408808e-01 -3.387379e-01 0.000000e+00
    outer loop
      vertex 4.030489e+01 1.273152e+01 3.800000e+01
      vertex 4.030489e+01 1.273152e+01 0.000000e+00
      vertex 4.164223e+01 1.644611e+01 0.000000e+00
    endloop
  endfacet
  facet normal 9.408808e-01 -3.387379e-01 0.000000e+00
    outer loop
      vertex 4.164223e+01 1.644611e+01 3.800000e+01
      vertex 4.030489e+01 1.273152e+01 3.800000e+01
      vertex 4.164223e+01 1.644611e+01 0.000000e+00
    endloop
  endfacet
  facet normal 9.955620e-01 -9.410800e-02 0.000000e+00
    outer loop
      vertex 4.164223e+01 1.644611e+01 3.800000e+01
      vertex 4.164223e+01 1.644611e+01 0.000000e+00
      vertex 4.201377e+01 2.037659e+01 0.000000e+00
    endloop
  endfacet
  facet normal 9.955620e-01 -9.410800e-02 0.000000e+00
    outer loop
      vertex 4.201377e+01 2.037659e+01 3.800000e+01
      vertex 4.164223e+01 1.644611e+01 3.800000e+01
      vertex 4.201377e+01 2.037659e+01 0.000000e+00
    endloop
  endfacet
  facet normal 9.876882e-01 1.564350e-01 0.000000e+00
    outer loop
      vertex 4.201377e+01 2.037659e+01 3.800000e+01
      vertex 4.201377e+01 2.037659e+01 0.000000e+00
      vertex 4.139616e+01 2.427598e+01 0.000000e+00
    endloop
  endfacet
  facet normal 9.876882e-01 1.564350e-01 0.000000e+00
    outer loop
      vertex 4.139616e+01 2.427598e+01 3.800000e+01
      vertex 4.201377e+01 2.037659e+01 3.800000e+01
      vertex 4.139616e+01 2.427598e+01 0.000000e+00
    endloop
  endfacet
  facet normal 9.177547e-01 3.971478e-01 0.000000e+00
    outer loop
      vertex 4.139616e+01 2.427598e+01 3.800000e+01
      vertex 4.139616e+01 2.427598e+01 0.000000e+00
      vertex 3.982822e+01 2.789927e+01 0.000000e+00
    endloop
  endfacet
  facet normal 9.177547e-01 3.971478e-01 0.000000e+00
    outer loop
      vertex 3.982822e+01 2.789927e+01 3.800000e+01
      vertex 4.139616e+01 2.427598e+01 3.800000e+01
      vertex 3.982822e+01 2.789927e+01 0.000000e+00
    endloop
  endfacet
  facet normal 7.901551e-01 6.129071e-01 0.000000e+00
    outer loop
      vertex 3.982822e+01 2.789927e+01 3.800000e+01
      vertex 3.982822e+01 2.789927e+01 0.000000e+00
      vertex 3.740847e+01 3.101880e+01 0.000000e+00
    endloop
  endfacet
  facet normal 7.901551e-01 6.129071e-01 0.000000e+00
    outer loop
      vertex 3.740847e+01 3.101880e+01 3.800000e+01
      vertex 3.982822e+01 2.789927e+01 3.800000e+01
      vertex 3.740847e+01 3.101880e+01 0.000000e+00
    endloop
  endfacet
  facet normal 6.129071e-01 7.901551e-01 0.000000e+00
    outer loop
      vertex 3.428894e+01 3.343856e+01 0.000000e+00
      vertex 3.428894e+01 3.343856e+01 3.800000e+01
      vertex 3.740847e+01 3.101880e+01 0.000000e+00
    endloop
  endfacet
  facet normal 6.129071e-01 7.901551e-01 0.000000e+00
    outer loop
      vertex 3.740847e+01 3.101880e+01 0.000000e+00
      vertex 3.428894e+01 3.343856e+01 3.800000e+01
      vertex 3.740847e+01 3.101880e+01 3.800000e+01
    endloop
  endfacet
  facet normal 3.971478e-01 9.177547e-01 0.000000e+00
    outer loop
      vertex 3.066565e+01 3.500650e+01 0.000000e+00
      vertex 3.066565e+01 3.500650e+01 3.800000e+01
      vertex 3.428894e+01 3.343856e+01 0.000000e+00
    endloop
  endfacet
  facet normal 3.971478e-01 9.177547e-01 0.000000e+00
    outer loop
      vertex 3.428894e+01 3.343856e+01 0.000000e+00
      vertex 3.066565e+01 3.500650e+01 3.800000e+01
      vertex 3.428894e+01 3.343856e+01 3.800000e+01
    endloop
  endfacet
  facet normal 1.564350e-01 9.876882e-01 0.000000e+00
    outer loop
      vertex 2.676626e+01 3.562409e+01 0.000000e+00
      vertex 2.676626e+01 3.562409e+01 3.800000e+01
      vertex 3.066565e+01 3.500650e+01 0.000000e+00
    endloop
  endfacet
  facet normal 1.564350e-01 9.876882e-01 0.000000e+00
    outer loop
      vertex 3.066565e+01 3.500650e+01 0.000000e+00
      vertex 2.676626e+01 3.562409e+01 3.800000e+01
      vertex 3.066565e+01 3.500650e+01 3.800000e+01
    endloop
  endfacet
  facet normal -9.410800e-02 9.955620e-01 0.000000e+00
    outer loop
      vertex 2.283578e+01 3.525256e+01 0.000000e+00
      vertex 2.283578e+01 3.525256e+01 3.800000e+01
      vertex 2.676626e+01 3.562409e+01 0.000000e+00
    endloop
  endfacet
  facet normal -9.410800e-02 9.955620e-01 0.000000e+00
    outer loop
      vertex 2.676626e+01 3.562409e+01 0.000000e+00
      vertex 2.283578e+01 3.525256e+01 3.800000e+01
      vertex 2.676626e+01 3.562409e+01 3.800000e+01
    endloop
  endfacet
  facet normal -3.387379e-01 9.408808e-01 0.000000e+00
    outer loop
      vertex 1.912119e+01 3.391522e+01 0.000000e+00
      vertex 1.912119e+01 3.391522e+01 3.800000e+01
      vertex 2.283578e+01 3.525256e+01 0.000000e+00
    endloop
  endfacet
  facet normal -3.387379e-01 9.408808e-01 0.000000e+00
    outer loop
      vertex 2.283578e+01 3.525256e+01 0.000000e+00
      vertex 1.912119e+01 3.391522e+01 3.800000e+01
      vertex 2.283578e+01 3.525256e+01 3.800000e+01
    endloop
  endfacet
  facet normal -5.620829e-01 8.270809e-01 0.000000e+00
    outer loop
      vertex 1.585587e+01 3.169612e+01 0.000000e+00
      vertex 1.585587e+01 3.169612e+01 3.800000e+01
      vertex 1.912119e+01 3.391522e+01 0.000000e+00
    endloop
  endfacet
  facet normal -5.620829e-01 8.270809e-01 0.000000e+00
    outer loop
      vertex 1.912119e+01 3.391522e+01 0.000000e+00
      vertex 1.585587e+01 3.169612e+01 3.800000e+01
      vertex 1.912119e+01 3.391522e+01 3.800000e+01
    endloop
  endfacet
  facet normal -7.501110e-01 6.613120e-01 0.000000e+00
    outer loop
      vertex 1.520058e+01 3.095283e+01 0.000000e+00
      vertex 1.520058e+01 3.095283e+01 3.800000e+01
      vertex 1.585587e+01 3.169612e+01 0.000000e+00
    endloop
  endfacet
  facet normal -7.501110e-01 6.613120e-01 0.000000e+00
    outer loop
      vertex 1.585587e+01 3.169612e+01 0.000000e+00
      vertex 1.520058e+01 3.095283e+01 3.800000e+01
      vertex 1.585587e+01 3.169612e+01 3.800000e+01
    endloop
  endfacet
  facet normal 7.071068e-01 7.071068e-01 0.000000e+00
    outer loop
      vertex 1.520058e+01 3.095283e+01 3.800000e+01
      vertex 1.520058e+01 3.095283e+01 0.000000e+00
      vertex 1.513460e+01 3.101880e+01 0.000000e+00
    endloop
  endfacet
  facet normal 7.071068e-01 7.071068e-01 0.000000e+00
    outer loop
      vertex 1.513460e+01 3.101880e+01 3.800000e+01
      vertex 1.520058e+01 3.095283e+01 3.800000e+01
      vertex 1.513460e+01 3.101880e+01 0.000000e+00
    endloop
  endfacet
  facet normal -7.071068e-01 7.071068e-01 0.000000e+00
    outer loop
      vertex -3.324564e+01 -1.736145e+01 0.000000e+00
      vertex -3.324564e+01 -1.736145e+01 3.800000e+01
      vertex 1.513460e+01 3.101880e+01 0.000000e+00
    endloop
  endfacet
  facet normal -7.071068e-01 7.071068e-01 0.000000e+00
    outer loop
      vertex 1.513460e+01 3.101880e+01 0.000000e+00
      vertex -3.324564e+01 -1.736145e+01 3.800000e+01
      vertex 1.513460e+01 3.101880e+01 3.800000e+01
    endloop
  endfacet
  facet normal -7.071068e-01 -7.071068e-01 -0.000000e+00
    outer loop
      vertex -3.318508e+01 -1.742201e+01 0.000000e+00
      vertex -3.318508e+01 -1.742201e+01 3.800000e+01
      vertex -3.324564e+01 -1.736145e+01 0.000000e+00
    endloop
  endfacet
  facet normal -7.071068e-01 -7.071068e-01 -0.000000e+00
    outer loop
      vertex -3.324564e+01 -1.736145e+01 0.000000e+00
      vertex -3.318508e+01 -1.742201e+01 3.800000e+01
      vertex -3.324564e+01 -1.736145e+01 3.800000e+01
    endloop
  endfacet
  facet normal -7.071068e-01 7.071068e-01 0.000000e+00
    outer loop
      vertex -3.356747e+01 -1.780440e+01 0.000000e+00
      vertex -3.356747e+01 -1.780440e+01 3.800000e+01
      vertex -3.318508e+01 -1.742201e+01 0.000000e+00
    endloop
  endfacet
  facet normal -7.071068e-01 7.071068e-01 0.000000e+00
    outer loop
      vertex -3.318508e+01 -1.742201e+01 0.000000e+00
      vertex -3.356747e+01 -1.780440e+01 3.800000e+01
      vertex -3.318508e+01 -1.742201e+01 3.800000e+01
    endloop
  endfacet
  facet normal -9.876885e-01 1.564341e-01 0.000000e+00
    outer loop
      vertex -3.373666e+01 -1.887264e+01 0.000000e+00
      vertex -3.373666e+01 -1.887264e+01 3.800000e+01
      vertex -3.356747e+01 -1.780440e+01 0.000000e+00
    endloop
  endfacet
  facet normal -9.876885e-01 1.564341e-01 0.000000e+00
    outer loop
      vertex -3.356747e+01 -1.780440e+01 0.000000e+00
      vertex -3.373666e+01 -1.887264e+01 3.800000e+01
      vertex -3.356747e+01 -1.780440e+01 3.800000e+01
    endloop
  endfacet
  facet normal -8.910062e-01 -4.539911e-01 -0.000000e+00
    outer loop
      vertex -3.324564e+01 -1.983632e+01 0.000000e+00
      vertex -3.324564e+01 -1.983632e+01 3.800000e+01
      vertex -3.373666e+01 -1.887264e+01 0.000000e+00
    endloop
  endfacet
  facet normal -8.910062e-01 -4.539911e-01 -0.000000e+00
    outer loop
      vertex -3.373666e+01 -1.887264e+01 0.000000e+00
      vertex -3.324564e+01 -1.983632e+01 3.800000e+01
      vertex -3.373666e+01 -1.887264e+01 3.800000e+01
    endloop
  endfacet
  facet normal -4.539911e-01 -8.910062e-01 0.000000e+00
    outer loop
      vertex -3.324564e+01 -1.983632e+01 3.800000e+01
      vertex -3.324564e+01 -1.983632e+01 0.000000e+00
      vertex -3.228197e+01 -2.032734e+01 0.000000e+00
    endloop
  endfacet
  facet normal -4.539911e-01 -8.910062e-01 0.000000e+00
    outer loop
      vertex -3.228197e+01 -2.032734e+01 3.800000e+01
      vertex -3.324564e+01 -1.983632e+01 3.800000e+01
      vertex -3.228197e+01 -2.032734e+01 0.000000e+00
    endloop
  endfacet
  facet normal 1.564341e-01 -9.876885e-01 0.000000e+00
    outer loop
      vertex -3.228197e+01 -2.032734e+01 3.800000e+01
      vertex -3.228197e+01 -2.032734e+01 0.000000e+00
      vertex -3.121372e+01 -2.015814e+01 0.000000e+00
    endloop
  endfacet
  facet normal 1.564341e-01 -9.876885e-01 0.000000e+00
    outer loop
      vertex -3.121372e+01 -2.015814e+01 3.800000e+01
      vertex -3.228197e+01 -2.032734e+01 3.800000e+01
      vertex -3.121372e+01 -2.015814e+01 0.000000e+00
    endloop
  endfacet
  facet normal 7.071068e-01 -7.071068e-01 0.000000e+00
    outer loop
      vertex -3.121372e+01 -2.015814e+01 3.800000e+01
      vertex -3.121372e+01 -2.015814e+01 0.000000e+00
      vertex -3.083133e+01 -1.977576e+01 0.000000e+00
    endloop
  endfacet
  facet normal 7.071068e-01 -7.071068e-01 0.000000e+00
    outer loop
      vertex -3.083133e+01 -1.977576e+01 3.800000e+01
      vertex -3.121372e+01 -2.015814e+01 3.800000e+01
      vertex -3.083133e+01 -1.977576e+01 0.000000e+00
    endloop
  endfacet
  facet normal -7.071068e-01 -7.071068e-01 -0.000000e+00
    outer loop
      vertex -3.077077e+01 -1.983632e+01 0.000000e+00
      vertex -3.077077e+01 -1.983632e+01 3.800000e+01
      vertex -3.083133e+01 -1.977576e+01 0.000000e+00
    endloop
  endfacet
  facet normal -7.071068e-01 -7.071068e-01 -0.000000e+00
    outer loop
      vertex -3.083133e+01 -1.977576e+01 0.000000e+00
      vertex -3.077077e+01 -1.983632e+01 3.800000e+01
      vertex -3.083133e+01 -1.977576e+01 3.800000e+01
    endloop
  endfacet
  facet normal 7.071068e-01 -7.071068e-01 0.000000e+00
    outer loop
      vertex -3.077077e+01 -1.983632e+01 3.800000e+01
      vertex -3.077077e+01 -1.983632e+01 0.000000e+00
      vertex 1.725593e+01 2.819038e+01 0.000000e+00
    endloop
  endfacet
  facet normal 7.071068e-01 -7.071068e-01 0.000000e+00
    outer loop
      vertex 1.725593e+01 2.819038e+01 3.800000e+01
      vertex -3.077077e+01 -1.983632e+01 3.800000e+01
      vertex 1.725593e+01 2.819038e+01 0.000000e+00
    endloop
  endfacet
  facet normal -7.071068e-01 -7.071068e-01 0.000000e+00
    outer loop
      vertex 1.725593e+01 2.819038e+01 3.800000e+01
      vertex 1.725593e+01 2.819038e+01 0.000000e+00
      vertex 1.732948e+01 2.811682e+01 3.800000e+01
    endloop
  endfacet
  facet normal -7.071068e-01 -7.071068e-01 0.000000e+00
    outer loop
      vertex 1.732948e+01 2.811682e+01 3.800000e+01
      vertex 1.725593e+01 2.819038e+01 0.000000e+00
      vertex 1.732948e+01 2.811682e+01 0.000000e+00
    endloop
  endfacet
  facet normal 7.501110e-01 -6.613120e-01 0.000000e+00
    outer loop
      vertex 1.817047e+01 2.907073e+01 0.000000e+00
      vertex 1.817047e+01 2.907073e+01 3.800000e+01
      vertex 1.732948e+01 2.811682e+01 3.800000e+01
    endloop
  endfacet
  facet normal 7.501110e-01 -6.613120e-01 0.000000e+00
    outer loop
      vertex 1.732948e+01 2.811682e+01 0.000000e+00
      vertex 1.817047e+01 2.907073e+01 0.000000e+00
      vertex 1.732948e+01 2.811682e+01 3.800000e+01
    endloop
  endfacet
  facet normal 5.620829e-01 -8.270809e-01 0.000000e+00
    outer loop
      vertex 2.071015e+01 3.079670e+01 0.000000e+00
      vertex 2.071015e+01 3.079670e+01 3.800000e+01
      vertex 1.817047e+01 2.907073e+01 3.800000e+01
    endloop
  endfacet
  facet normal 5.620829e-01 -8.270809e-01 0.000000e+00
    outer loop
      vertex 1.817047e+01 2.907073e+01 0.000000e+00
      vertex 2.071015e+01 3.079670e+01 0.000000e+00
      vertex 1.817047e+01 2.907073e+01 3.800000e+01
    endloop
  endfacet
  facet normal 3.387379e-01 -9.408808e-01 0.000000e+00
    outer loop
      vertex 2.359928e+01 3.183685e+01 0.000000e+00
      vertex 2.359928e+01 3.183685e+01 3.800000e+01
      vertex 2.071015e+01 3.079670e+01 3.800000e+01
    endloop
  endfacet
  facet normal 3.387379e-01 -9.408808e-01 0.000000e+00
    outer loop
      vertex 2.071015e+01 3.079670e+01 0.000000e+00
      vertex 2.359928e+01 3.183685e+01 0.000000e+00
      vertex 2.071015e+01 3.079670e+01 3.800000e+01
    endloop
  endfacet
  facet normal 9.410800e-02 -9.955620e-01 0.000000e+00
    outer loop
      vertex 2.665632e+01 3.212582e+01 0.000000e+00
      vertex 2.665632e+01 3.212582e+01 3.800000e+01
      vertex 2.359928e+01 3.183685e+01 3.800000e+01
    endloop
  endfacet
  facet normal 9.410800e-02 -9.955620e-01 0.000000e+00
    outer loop
      vertex 2.359928e+01 3.183685e+01 0.000000e+00
      vertex 2.665632e+01 3.212582e+01 0.000000e+00
      vertex 2.359928e+01 3.183685e+01 3.800000e+01
    endloop
  endfacet
  facet normal -1.564341e-01 -9.876885e-01 -0.000000e+00
    outer loop
      vertex 2.968918e+01 3.164546e+01 0.000000e+00
      vertex 2.968918e+01 3.164546e+01 3.800000e+01
      vertex 2.665632e+01 3.212582e+01 3.800000e+01
    endloop
  endfacet
  facet normal -1.564341e-01 -9.876885e-01 -0.000000e+00
    outer loop
      vertex 2.665632e+01 3.212582e+01 0.000000e+00
      vertex 2.968918e+01 3.164546e+01 0.000000e+00
      vertex 2.665632e+01 3.212582e+01 3.800000e+01
    endloop
  endfacet
  facet normal -3.971478e-01 -9.177547e-01 -0.000000e+00
    outer loop
      vertex 3.250729e+01 3.042596e+01 0.000000e+00
      vertex 3.250729e+01 3.042596e+01 3.800000e+01
      vertex 2.968918e+01 3.164546e+01 3.800000e+01
    endloop
  endfacet
  facet normal -3.971478e-01 -9.177547e-01 -0.000000e+00
    outer loop
      vertex 2.968918e+01 3.164546e+01 0.000000e+00
      vertex 3.250729e+01 3.042596e+01 0.000000e+00
      vertex 2.968918e+01 3.164546e+01 3.800000e+01
    endloop
  endfacet
  facet normal -6.129071e-01 -7.901551e-01 -0.000000e+00
    outer loop
      vertex 3.493359e+01 2.854393e+01 0.000000e+00
      vertex 3.493359e+01 2.854393e+01 3.800000e+01
      vertex 3.250729e+01 3.042596e+01 3.800000e+01
    endloop
  endfacet
  facet normal -6.129071e-01 -7.901551e-01 -0.000000e+00
    outer loop
      vertex 3.250729e+01 3.042596e+01 0.000000e+00
      vertex 3.493359e+01 2.854393e+01 0.000000e+00
      vertex 3.250729e+01 3.042596e+01 3.800000e+01
    endloop
  endfacet
  facet normal -7.901551e-01 -6.129071e-01 0.000000e+00
    outer loop
      vertex 3.493359e+01 2.854393e+01 3.800000e+01
      vertex 3.493359e+01 2.854393e+01 0.000000e+00
      vertex 3.681563e+01 2.611763e+01 3.800000e+01
    endloop
  endfacet
  facet normal -7.901551e-01 -6.129071e-01 0.000000e+00
    outer loop
      vertex 3.681563e+01 2.611763e+01 3.800000e+01
      vertex 3.493359e+01 2.854393e+01 0.000000e+00
      vertex 3.681563e+01 2.611763e+01 0.000000e+00
    endloop
  endfacet
  facet normal -9.177547e-01 -3.971478e-01 0.000000e+00
    outer loop
      vertex 3.681563e+01 2.611763e+01 3.800000e+01
      vertex 3.681563e+01 2.611763e+01 0.000000e+00
      vertex 3.803513e+01 2.329951e+01 3.800000e+01
    endloop
  endfacet
  facet normal -9.177547e-01 -3.971478e-01 0.000000e+00
    outer loop
      vertex 3.803513e+01 2.329951e+01 3.800000e+01
      vertex 3.681563e+01 2.611763e+01 0.000000e+00
      vertex 3.803513e+01 2.329951e+01 0.000000e+00
    endloop
  endfacet
  facet normal -9.876885e-01 -1.564341e-01 0.000000e+00
    outer loop
      vertex 3.803513e+01 2.329951e+01 3.800000e+01
      vertex 3.803513e+01 2.329951e+01 0.000000e+00
      vertex 3.851549e+01 2.026665e+01 3.800000e+01
    endloop
  endfacet
  facet normal -9.876885e-01 -1.564341e-01 0.000000e+00
    outer loop
      vertex 3.851549e+01 2.026665e+01 3.800000e+01
      vertex 3.803513e+01 2.329951e+01 0.000000e+00
      vertex 3.851549e+01 2.026665e+01 0.000000e+00
    endloop
  endfacet
  facet normal -9.955620e-01 9.410800e-02 0.000000e+00
    outer loop
      vertex 3.851549e+01 2.026665e+01 3.800000e+01
      vertex 3.851549e+01 2.026665e+01 0.000000e+00
      vertex 3.822652e+01 1.720961e+01 3.800000e+01
    endloop
  endfacet
  facet normal -9.955620e-01 9.410800e-02 0.000000e+00
    outer loop
      vertex 3.822652e+01 1.720961e+01 3.800000e+01
      vertex 3.851549e+01 2.026665e+01 0.000000e+00
      vertex 3.822652e+01 1.720961e+01 0.000000e+00
    endloop
  endfacet
  facet normal -9.408808e-01 3.387379e-01 0.000000e+00
    outer loop
      vertex 3.822652e+01 1.720961e+01 3.800000e+01
      vertex 3.822652e+01 1.720961e+01 0.000000e+00
      vertex 3.718637e+01 1.432049e+01 3.800000e+01
    endloop
  endfacet
  facet normal -9.408808e-01 3.387379e-01 0.000000e+00
    outer loop
      vertex 3.718637e+01 1.432049e+01 3.800000e+01
      vertex 3.822652e+01 1.720961e+01 0.000000e+00
      vertex 3.718637e+01 1.432049e+01 0.000000e+00
    endloop
  endfacet
  facet normal -8.270809e-01 5.620829e-01 0.000000e+00
    outer loop
      vertex 3.718637e+01 1.432049e+01 3.800000e+01
      vertex 3.718637e+01 1.432049e+01 0.000000e+00
      vertex 3.558085e+01 1.195804e+01 3.800000e+01
    endloop
  endfacet
  facet normal -8.270809e-01 5.620829e-01 0.000000e+00
    outer loop
      vertex 3.558085e+01 1.195804e+01 3.800000e+01
      vertex 3.718637e+01 1.432049e+01 0.000000e+00
      vertex 3.558085e+01 1.195804e+01 0.000000e+00
    endloop
  endfacet
  facet normal -6.293202e-01 7.771462e-01 0.000000e+00
    outer loop
      vertex -1.704195e+01 -3.065506e+01 2.000000e+00
      vertex -1.704195e+01 -3.065506e+01 3.800000e+01
      vertex -1.147066e+01 -2.614353e+01 2.000000e+00
    endloop
  endfacet
  facet normal -6.293202e-01 7.771462e-01 0.000000e+00
    outer loop
      vertex -1.147066e+01 -2.614353e+01 2.000000e+00
      vertex -1.704195e+01 -3.065506e+01 3.800000e+01
      vertex 3.558085e+01 1.195804e+01 3.800000e+01
    endloop
  endfacet
  facet normal -6.293202e-01 7.771462e-01 0.000000e+00
    outer loop
      vertex -1.147066e+01 -2.614353e+01 2.000000e+00
      vertex 3.558085e+01 1.195804e+01 3.800000e+01
      vertex 3.558085e+01 1.195804e+01 0.000000e+00
    endloop
  endfacet
  facet normal -6.293202e-01 7.771462e-01 0.000000e+00
    outer loop
      vertex -1.147066e+01 -2.614353e+01 2.000000e+00
      vertex 3.558085e+01 1.195804e+01 0.000000e+00
      vertex -1.147066e+01 -2.614353e+01 0.000000e+00
    endloop
  endfacet
  facet normal 5.877851e-01 8.090171e-01 0.000000e+00
    outer loop
      vertex -1.337854e+01 -2.475737e+01 0.000000e+00
      vertex -1.337854e+01 -2.475737e+01 2.000000e+00
      vertex -1.147066e+01 -2.614353e+01 0.000000e+00
    endloop
  endfacet
  facet normal 5.877851e-01 8.090171e-01 0.000000e+00
    outer loop
      vertex -1.147066e+01 -2.614353e+01 0.000000e+00
      vertex -1.337854e+01 -2.475737e+01 2.000000e+00
      vertex -1.147066e+01 -2.614353e+01 2.000000e+00
    endloop
  endfacet
  facet normal 3.090169e-01 9.510565e-01 0.000000e+00
    outer loop
      vertex -1.575899e+01 -2.398391e+01 0.000000e+00
      vertex -1.575899e+01 -2.398391e+01 2.000000e+00
      vertex -1.337854e+01 -2.475737e+01 0.000000e+00
    endloop
  endfacet
  facet normal 3.090169e-01 9.510565e-01 0.000000e+00
    outer loop
      vertex -1.337854e+01 -2.475737e+01 0.000000e+00
      vertex -1.575899e+01 -2.398391e+01 2.000000e+00
      vertex -1.337854e+01 -2.475737e+01 2.000000e+00
    endloop
  endfacet
  facet normal 0.000000e+00 1.000000e+00 0.000000e+00
    outer loop
      vertex -1.826194e+01 -2.398391e+01 0.000000e+00
      vertex -1.826194e+01 -2.398391e+01 2.000000e+00
      vertex -1.575899e+01 -2.398391e+01 0.000000e+00
    endloop
  endfacet
  facet normal 0.000000e+00 1.000000e+00 0.000000e+00
    outer loop
      vertex -1.575899e+01 -2.398391e+01 0.000000e+00
      vertex -1.826194e+01 -2.398391e+01 2.000000e+00
      vertex -1.575899e+01 -2.398391e+01 2.000000e+00
    endloop
  endfacet
  facet normal -3.090169e-01 9.510565e-01 0.000000e+00
    outer loop
      vertex -2.064239e+01 -2.475737e+01 0.000000e+00
      vertex -2.064239e+01 -2.475737e+01 2.000000e+00
      vertex -1.826194e+01 -2.398391e+01 0.000000e+00
    endloop
  endfacet
  facet normal -3.090169e-01 9.510565e-01 0.000000e+00
    outer loop
      vertex -1.826194e+01 -2.398391e+01 0.000000e+00
      vertex -2.064239e+01 -2.475737e+01 2.000000e+00
      vertex -1.826194e+01 -2.398391e+01 2.000000e+00
    endloop
  endfacet
  facet normal -5.877851e-01 8.090171e-01 0.000000e+00
    outer loop
      vertex -2.266732e+01 -2.622856e+01 0.000000e+00
      vertex -2.266732e+01 -2.622856e+01 2.000000e+00
      vertex -2.064239e+01 -2.475737e+01 0.000000e+00
    endloop
  endfacet
  facet normal -5.877851e-01 8.090171e-01 0.000000e+00
    outer loop
      vertex -2.064239e+01 -2.475737e+01 0.000000e+00
      vertex -2.266732e+01 -2.622856e+01 2.000000e+00
      vertex -2.064239e+01 -2.475737e+01 2.000000e+00
    endloop
  endfacet
  facet normal -8.090171e-01 5.877851e-01 0.000000e+00
    outer loop
      vertex -2.413852e+01 -2.825350e+01 0.000000e+00
      vertex -2.413852e+01 -2.825350e+01 2.000000e+00
      vertex -2.266732e+01 -2.622856e+01 0.000000e+00
    endloop
  endfacet
  facet normal -8.090171e-01 5.877851e-01 0.000000e+00
    outer loop
      vertex -2.266732e+01 -2.622856e+01 0.000000e+00
      vertex -2.413852e+01 -2.825350e+01 2.000000e+00
      vertex -2.266732e+01 -2.622856e+01 2.000000e+00
    endloop
  endfacet
  facet normal -9.510565e-01 3.090169e-01 0.000000e+00
    outer loop
      vertex -2.491197e+01 -3.063394e+01 0.000000e+00
      vertex -2.491197e+01 -3.063394e+01 2.000000e+00
      vertex -2.413852e+01 -2.825350e+01 0.000000e+00
    endloop
  endfacet
  facet normal -9.510565e-01 3.090169e-01 0.000000e+00
    outer loop
      vertex -2.413852e+01 -2.825350e+01 0.000000e+00
      vertex -2.491197e+01 -3.063394e+01 2.000000e+00
      vertex -2.413852e+01 -2.825350e+01 2.000000e+00
    endloop
  endfacet
  facet normal -1.000000e+00 -0.000000e+00 -0.000000e+00
    outer loop
      vertex -2.491197e+01 -3.313690e+01 0.000000e+00
      vertex -2.491197e+01 -3.313690e+01 2.000000e+00
      vertex -2.491197e+01 -3.063394e+01 0.000000e+00
    endloop
  endfacet
  facet normal -1.000000e+00 0.000000e+00 0.000000e+00
    outer loop
      vertex -2.491197e+01 -3.063394e+01 0.000000e+00
      vertex -2.491197e+01 -3.313690e+01 2.000000e+00
      vertex -2.491197e+01 -3.063394e+01 2.000000e+00
    endloop
  endfacet
  facet normal -9.510565e-01 -3.090169e-01 -0.000000e+00
    outer loop
      vertex -2.413852e+01 -3.551734e+01 0.000000e+00
      vertex -2.413852e+01 -3.551734e+01 2.000000e+00
      vertex -2.491197e+01 -3.313690e+01 0.000000e+00
    endloop
  endfacet
  facet normal -9.510565e-01 -3.090169e-01 -0.000000e+00
    outer loop
      vertex -2.491197e+01 -3.313690e+01 0.000000e+00
      vertex -2.413852e+01 -3.551734e+01 2.000000e+00
      vertex -2.491197e+01 -3.313690e+01 2.000000e+00
    endloop
  endfacet
  facet normal 0.000000e+00 0.000000e+00 1.000000e+00
    outer loop
      vertex -2.413852e+01 -3.551734e+01 2.000000e+00
      vertex -2.266732e+01 -3.754227e+01 2.000000e+00
      vertex -2.064239e+01 -3.901347e+01 2.000000e+00
    endloop
  endfacet
  facet normal 0.000000e+00 0.000000e+00 1.000000e+00
    outer loop
      vertex -1.575899e+01 -3.978693e+01 2.000000e+00
      vertex -2.413852e+01 -3.551734e+01 2.000000e+00
      vertex -1.826194e+01 -3.978693e+01 2.000000e+00
    endloop
  endfacet
  facet normal 0.000000e+00 0.000000e+00 1.000000e+00
    outer loop
      vertex -1.826194e+01 -3.978693e+01 2.000000e+00
      vertex -2.413852e+01 -3.551734e+01 2.000000e+00
      vertex -2.064239e+01 -3.901347e+01 2.000000e+00
    endloop
  endfacet
  facet normal 0.000000e+00 0.000000e+00 1.000000e+00
    outer loop
      vertex -1.337854e+01 -3.901347e+01 2.000000e+00
      vertex -2.413852e+01 -3.551734e+01 2.000000e+00
      vertex -1.575899e+01 -3.978693e+01 2.000000e+00
    endloop
  endfacet
  facet normal 0.000000e+00 0.000000e+00 1.000000e+00
    outer loop
      vertex -1.135362e+01 -3.754227e+01 2.000000e+00
      vertex -2.413852e+01 -3.551734e+01 2.000000e+00
      vertex -1.337854e+01 -3.901347e+01 2.000000e+00
    endloop
  endfacet
  facet normal 0.000000e+00 0.000000e+00 1.000000e+00
    outer loop
      vertex -9.882417e+00 -3.551734e+01 2.000000e+00
      vertex -2.413852e+01 -3.551734e+01 2.000000e+00
      vertex -1.135362e+01 -3.754227e+01 2.000000e+00
    endloop
  endfacet
  facet normal 0.000000e+00 0.000000e+00 1.000000e+00
    outer loop
      vertex -9.108962e+00 -3.313690e+01 2.000000e+00
      vertex -2.413852e+01 -3.551734e+01 2.000000e+00
      vertex -9.882417e+00 -3.551734e+01 2.000000e+00
    endloop
  endfacet
  facet normal 0.000000e+00 0.000000e+00 1.000000e+00
    outer loop
      vertex -1.531349e+01 -3.364883e+01 2.000000e+00
      vertex -2.413852e+01 -3.551734e+01 2.000000e+00
      vertex -9.108962e+00 -3.313690e+01 2.000000e+00
    endloop
  endfacet
  facet normal 0.000000e+00 0.000000e+00 1.000000e+00
    outer loop
      vertex -1.489323e+01 -3.330851e+01 2.000000e+00
      vertex -1.531349e+01 -3.364883e+01 2.000000e+00
      vertex -1.483932e+01 -3.337507e+01 2.000000e+00
    endloop
  endfacet
  facet normal 0.000000e+00 0.000000e+00 1.000000e+00
    outer loop
      vertex -9.108962e+00 -3.063394e+01 2.000000e+00
      vertex -1.483932e+01 -3.337507e+01 2.000000e+00
      vertex -9.108962e+00 -3.313690e+01 2.000000e+00
    endloop
  endfacet
  facet normal 0.000000e+00 0.000000e+00 1.000000e+00
    outer loop
      vertex -1.639357e+01 -3.370544e+01 2.000000e+00
      vertex -1.730064e+01 -3.311638e+01 2.000000e+00
      vertex -2.413852e+01 -3.551734e+01 2.000000e+00
    endloop
  endfacet
  facet normal 0.000000e+00 0.000000e+00 1.000000e+00
    outer loop
      vertex -1.531349e+01 -3.364883e+01 2.000000e+00
      vertex -1.639357e+01 -3.370544e+01 2.000000e+00
      vertex -2.413852e+01 -3.551734e+01 2.000000e+00
    endloop
  endfacet
  facet normal 0.000000e+00 0.000000e+00 1.000000e+00
    outer loop
      vertex -1.483932e+01 -3.337507e+01 2.000000e+00
      vertex -1.531349e+01 -3.364883e+01 2.000000e+00
      vertex -9.108962e+00 -3.313690e+01 2.000000e+00
    endloop
  endfacet
  facet normal 0.000000e+00 0.000000e+00 1.000000e+00
    outer loop
      vertex -1.730064e+01 -3.311638e+01 2.000000e+00
      vertex -1.768824e+01 -3.210666e+01 2.000000e+00
      vertex -2.413852e+01 -3.551734e+01 2.000000e+00
    endloop
  endfacet
  facet normal 0.000000e+00 0.000000e+00 1.000000e+00
    outer loop
      vertex -1.740831e+01 -3.106195e+01 2.000000e+00
      vertex -2.413852e+01 -3.551734e+01 2.000000e+00
      vertex -1.768824e+01 -3.210666e+01 2.000000e+00
    endloop
  endfacet
  facet normal 0.000000e+00 0.000000e+00 1.000000e+00
    outer loop
      vertex -1.698804e+01 -3.072163e+01 2.000000e+00
      vertex -2.413852e+01 -3.551734e+01 2.000000e+00
      vertex -1.740831e+01 -3.106195e+01 2.000000e+00
    endloop
  endfacet
  facet normal 0.000000e+00 0.000000e+00 1.000000e+00
    outer loop
      vertex -1.704195e+01 -3.065506e+01 2.000000e+00
      vertex -2.413852e+01 -3.551734e+01 2.000000e+00
      vertex -1.698804e+01 -3.072163e+01 2.000000e+00
    endloop
  endfacet
  facet normal 0.000000e+00 0.000000e+00 1.000000e+00
    outer loop
      vertex -1.147066e+01 -2.614353e+01 2.000000e+00
      vertex -2.413852e+01 -3.551734e+01 2.000000e+00
      vertex -1.704195e+01 -3.065506e+01 2.000000e+00
    endloop
  endfacet
  facet normal 0.000000e+00 0.000000e+00 1.000000e+00
    outer loop
      vertex -1.337854e+01 -2.475737e+01 2.000000e+00
      vertex -2.413852e+01 -3.551734e+01 2.000000e+00
      vertex -1.147066e+01 -2.614353e+01 2.000000e+00
    endloop
  endfacet
  facet normal 0.000000e+00 0.000000e+00 1.000000e+00
    outer loop
      vertex -1.575899e+01 -2.398391e+01 2.000000e+00
      vertex -2.413852e+01 -3.551734e+01 2.000000e+00
      vertex -1.337854e+01 -2.475737e+01 2.000000e+00
    endloop
  endfacet
  facet normal 0.000000e+00 0.000000e+00 1.000000e+00
    outer loop
      vertex -1.826194e+01 -2.398391e+01 2.000000e+00
      vertex -2.413852e+01 -3.551734e+01 2.000000e+00
      vertex -1.575899e+01 -2.398391e+01 2.000000e+00
    endloop
  endfacet
  facet normal 0.000000e+00 0.000000e+00 1.000000e+00
    outer loop
      vertex -2.064239e+01 -2.475737e+01 2.000000e+00
      vertex -2.413852e+01 -3.551734e+01 2.000000e+00
      vertex -1.826194e+01 -2.398391e+01 2.000000e+00
    endloop
  endfacet
  facet normal 0.000000e+00 0.000000e+00 1.000000e+00
    outer loop
      vertex -2.266732e+01 -2.622856e+01 2.000000e+00
      vertex -2.413852e+01 -3.551734e+01 2.000000e+00
      vertex -2.064239e+01 -2.475737e+01 2.000000e+00
    endloop
  endfacet
  facet normal 0.000000e+00 0.000000e+00 1.000000e+00
    outer loop
      vertex -2.413852e+01 -2.825350e+01 2.000000e+00
      vertex -2.413852e+01 -3.551734e+01 2.000000e+00
      vertex -2.266732e+01 -2.622856e+01 2.000000e+00
    endloop
  endfacet
  facet normal 0.000000e+00 0.000000e+00 1.000000e+00
    outer loop
      vertex -2.491197e+01 -3.063394e+01 2.000000e+00
      vertex -2.413852e+01 -3.551734e+01 2.000000e+00
      vertex -2.413852e+01 -2.825350e+01 2.000000e+00
    endloop
  endfacet
  facet normal 0.000000e+00 0.000000e+00 1.000000e+00
    outer loop
      vertex -2.491197e+01 -3.313690e+01 2.000000e+00
      vertex -2.413852e+01 -3.551734e+01 2.000000e+00
      vertex -2.491197e+01 -3.063394e+01 2.000000e+00
    endloop
  endfacet
  facet normal 0.000000e+00 0.000000e+00 1.000000e+00
    outer loop
      vertex -9.597514e+00 -2.913034e+01 2.000000e+00
      vertex -1.483932e+01 -3.337507e+01 2.000000e+00
      vertex -9.108962e+00 -3.063394e+01 2.000000e+00
    endloop
  endfacet
  facet normal -7.771462e-01 -6.293202e-01 -0.000000e+00
    outer loop
      vertex -1.483932e+01 -3.337507e+01 2.000000e+00
      vertex -1.483932e+01 -3.337507e+01 3.800000e+01
      vertex -1.489323e+01 -3.330851e+01 2.000000e+00
    endloop
  endfacet
  facet normal -7.771462e-01 -6.293202e-01 -0.000000e+00
    outer loop
      vertex -1.489323e+01 -3.330851e+01 2.000000e+00
      vertex -1.483932e+01 -3.337507e+01 3.800000e+01
      vertex -1.489323e+01 -3.330851e+01 3.800000e+01
    endloop
  endfacet
  facet normal 0.000000e+00 0.000000e+00 1.000000e+00
    outer loop
      vertex -1.698804e+01 -3.072163e+01 3.800000e+01
      vertex -1.768824e+01 -3.210666e+01 3.800000e+01
      vertex 3.558085e+01 1.195804e+01 3.800000e+01
    endloop
  endfacet
  facet normal 0.000000e+00 0.000000e+00 1.000000e+00
    outer loop
      vertex -3.373666e+01 -1.887264e+01 3.800000e+01
      vertex -3.324564e+01 -1.983632e+01 3.800000e+01
      vertex -3.228197e+01 -2.032734e+01 3.800000e+01
    endloop
  endfacet
  facet normal 0.000000e+00 0.000000e+00 1.000000e+00
    outer loop
      vertex -3.083133e+01 -1.977576e+01 3.800000e+01
      vertex -3.373666e+01 -1.887264e+01 3.800000e+01
      vertex -3.121372e+01 -2.015814e+01 3.800000e+01
    endloop
  endfacet
  facet normal 0.000000e+00 0.000000e+00 1.000000e+00
    outer loop
      vertex -3.121372e+01 -2.015814e+01 3.800000e+01
      vertex -3.373666e+01 -1.887264e+01 3.800000e+01
      vertex -3.228197e+01 -2.032734e+01 3.800000e+01
    endloop
  endfacet
  facet normal 0.000000e+00 0.000000e+00 1.000000e+00
    outer loop
      vertex 1.725593e+01 2.819038e+01 3.800000e+01
      vertex -3.373666e+01 -1.887264e+01 3.800000e+01
      vertex -3.083133e+01 -1.977576e+01 3.800000e+01
    endloop
  endfacet
  facet normal 0.000000e+00 0.000000e+00 1.000000e+00
    outer loop
      vertex 1.725593e+01 2.819038e+01 3.800000e+01
      vertex -3.083133e+01 -1.977576e+01 3.800000e+01
      vertex -3.077077e+01 -1.983632e+01 3.800000e+01
    endloop
  endfacet
  facet normal 0.000000e+00 0.000000e+00 1.000000e+00
    outer loop
      vertex 1.817047e+01 2.907073e+01 3.800000e+01
      vertex -3.373666e+01 -1.887264e+01 3.800000e+01
      vertex 1.725593e+01 2.819038e+01 3.800000e+01
    endloop
  endfacet
  facet normal 0.000000e+00 0.000000e+00 1.000000e+00
    outer loop
      vertex 1.817047e+01 2.907073e+01 3.800000e+01
      vertex 1.725593e+01 2.819038e+01 3.800000e+01
      vertex 1.732948e+01 2.811682e+01 3.800000e+01
    endloop
  endfacet
  facet normal 0.000000e+00 0.000000e+00 1.000000e+00
    outer loop
      vertex 2.283578e+01 3.525256e+01 3.800000e+01
      vertex -3.373666e+01 -1.887264e+01 3.800000e+01
      vertex 1.817047e+01 2.907073e+01 3.800000e+01
    endloop
  endfacet
  facet normal 0.000000e+00 0.000000e+00 1.000000e+00
    outer loop
      vertex 2.676626e+01 3.562409e+01 3.800000e+01
      vertex 1.817047e+01 2.907073e+01 3.800000e+01
      vertex 2.071015e+01 3.079670e+01 3.800000e+01
    endloop
  endfacet
  facet normal 0.000000e+00 0.000000e+00 1.000000e+00
    outer loop
      vertex 3.066565e+01 3.500650e+01 3.800000e+01
      vertex 2.071015e+01 3.079670e+01 3.800000e+01
      vertex 2.359928e+01 3.183685e+01 3.800000e+01
    endloop
  endfacet
  facet normal 0.000000e+00 0.000000e+00 1.000000e+00
    outer loop
      vertex 3.428894e+01 3.343856e+01 3.800000e+01
      vertex 2.359928e+01 3.183685e+01 3.800000e+01
      vertex 2.665632e+01 3.212582e+01 3.800000e+01
    endloop
  endfacet
  facet normal 0.000000e+00 0.000000e+00 1.000000e+00
    outer loop
      vertex 3.740847e+01 3.101880e+01 3.800000e+01
      vertex 2.665632e+01 3.212582e+01 3.800000e+01
      vertex 2.968918e+01 3.164546e+01 3.800000e+01
    endloop
  endfacet
  facet normal 0.000000e+00 0.000000e+00 1.000000e+00
    outer loop
      vertex 3.982822e+01 2.789927e+01 3.800000e+01
      vertex 2.968918e+01 3.164546e+01 3.800000e+01
      vertex 3.250729e+01 3.042596e+01 3.800000e+01
    endloop
  endfacet
  facet normal 0.000000e+00 0.000000e+00 1.000000e+00
    outer loop
      vertex 4.139616e+01 2.427598e+01 3.800000e+01
      vertex 3.250729e+01 3.042596e+01 3.800000e+01
      vertex 3.493359e+01 2.854393e+01 3.800000e+01
    endloop
  endfacet
  facet normal 0.000000e+00 0.000000e+00 1.000000e+00
    outer loop
      vertex 4.201377e+01 2.037659e+01 3.800000e+01
      vertex 3.493359e+01 2.854393e+01 3.800000e+01
      vertex 3.681563e+01 2.611763e+01 3.800000e+01
    endloop
  endfacet
  facet normal 0.000000e+00 0.000000e+00 1.000000e+00
    outer loop
      vertex 4.164223e+01 1.644611e+01 3.800000e+01
      vertex 3.681563e+01 2.611763e+01 3.800000e+01
      vertex 3.803513e+01 2.329951e+01 3.800000e+01
    endloop
  endfacet
  facet normal 0.000000e+00 0.000000e+00 1.000000e+00
    outer loop
      vertex 4.030489e+01 1.273152e+01 3.800000e+01
      vertex 3.803513e+01 2.329951e+01 3.800000e+01
      vertex 3.851549e+01 2.026665e+01 3.800000e+01
    endloop
  endfacet
  facet normal 0.000000e+00 0.000000e+00 1.000000e+00
    outer loop
      vertex 3.808579e+01 9.466207e+00 3.800000e+01
      vertex 3.851549e+01 2.026665e+01 3.800000e+01
      vertex 3.822652e+01 1.720961e+01 3.800000e+01
    endloop
  endfacet
  facet normal 0.000000e+00 0.000000e+00 1.000000e+00
    outer loop
      vertex 3.691309e+01 8.533206e+00 3.800000e+01
      vertex 3.822652e+01 1.720961e+01 3.800000e+01
      vertex 3.718637e+01 1.432049e+01 3.800000e+01
    endloop
  endfacet
  facet normal 0.000000e+00 0.000000e+00 1.000000e+00
    outer loop
      vertex 3.691309e+01 8.533206e+00 3.800000e+01
      vertex 3.718637e+01 1.432049e+01 3.800000e+01
      vertex 3.558085e+01 1.195804e+01 3.800000e+01
    endloop
  endfacet
  facet normal 0.000000e+00 0.000000e+00 1.000000e+00
    outer loop
      vertex -1.698804e+01 -3.072163e+01 3.800000e+01
      vertex 3.558085e+01 1.195804e+01 3.800000e+01
      vertex -1.704195e+01 -3.065506e+01 3.800000e+01
    endloop
  endfacet
  facet normal 0.000000e+00 0.000000e+00 1.000000e+00
    outer loop
      vertex -1.740831e+01 -3.106195e+01 3.800000e+01
      vertex -1.768824e+01 -3.210666e+01 3.800000e+01
      vertex -1.698804e+01 -3.072163e+01 3.800000e+01
    endloop
  endfacet
  facet normal 0.000000e+00 0.000000e+00 1.000000e+00
    outer loop
      vertex -1.489323e+01 -3.330851e+01 3.800000e+01
      vertex -1.483932e+01 -3.337507e+01 3.800000e+01
      vertex 3.558085e+01 1.195804e+01 3.800000e+01
    endloop
  endfacet
  facet normal 0.000000e+00 0.000000e+00 1.000000e+00
    outer loop
      vertex -1.768824e+01 -3.210666e+01 3.800000e+01
      vertex -1.730064e+01 -3.311638e+01 3.800000e+01
      vertex 3.558085e+01 1.195804e+01 3.800000e+01
    endloop
  endfacet
  facet normal 0.000000e+00 0.000000e+00 1.000000e+00
    outer loop
      vertex -1.730064e+01 -3.311638e+01 3.800000e+01
      vertex -1.639357e+01 -3.370544e+01 3.800000e+01
      vertex 3.558085e+01 1.195804e+01 3.800000e+01
    endloop
  endfacet
  facet normal 0.000000e+00 0.000000e+00 1.000000e+00
    outer loop
      vertex -1.639357e+01 -3.370544e+01 3.800000e+01
      vertex -1.531349e+01 -3.364883e+01 3.800000e+01
      vertex 3.558085e+01 1.195804e+01 3.800000e+01
    endloop
  endfacet
  facet normal 0.000000e+00 0.000000e+00 1.000000e+00
    outer loop
      vertex -1.531349e+01 -3.364883e+01 3.800000e+01
      vertex -1.489323e+01 -3.330851e+01 3.800000e+01
      vertex 3.558085e+01 1.195804e+01 3.800000e+01
    endloop
  endfacet
  facet normal 0.000000e+00 0.000000e+00 1.000000e+00
    outer loop
      vertex 1.520058e+01 3.095283e+01 3.800000e+01
      vertex 1.513460e+01 3.101880e+01 3.800000e+01
      vertex -3.373666e+01 -1.887264e+01 3.800000e+01
    endloop
  endfacet
  facet normal 0.000000e+00 0.000000e+00 1.000000e+00
    outer loop
      vertex -1.483932e+01 -3.337507e+01 3.800000e+01
      vertex 3.691309e+01 8.533206e+00 3.800000e+01
      vertex 3.558085e+01 1.195804e+01 3.800000e+01
    endloop
  endfacet
  facet normal 0.000000e+00 0.000000e+00 1.000000e+00
    outer loop
      vertex 3.691309e+01 8.533206e+00 3.800000e+01
      vertex 3.696670e+01 8.479598e+00 3.800000e+01
      vertex 3.822652e+01 1.720961e+01 3.800000e+01
    endloop
  endfacet
  facet normal 0.000000e+00 0.000000e+00 1.000000e+00
    outer loop
      vertex 3.696670e+01 8.479598e+00 3.800000e+01
      vertex 3.808579e+01 9.466207e+00 3.800000e+01
      vertex 3.822652e+01 1.720961e+01 3.800000e+01
    endloop
  endfacet
  facet normal 0.000000e+00 0.000000e+00 1.000000e+00
    outer loop
      vertex 3.808579e+01 9.466207e+00 3.800000e+01
      vertex 3.811092e+01 9.503188e+00 3.800000e+01
      vertex 3.851549e+01 2.026665e+01 3.800000e+01
    endloop
  endfacet
  facet normal 0.000000e+00 0.000000e+00 1.000000e+00
    outer loop
      vertex 3.811092e+01 9.503188e+00 3.800000e+01
      vertex 3.827870e+01 9.750079e+00 3.800000e+01
      vertex 3.851549e+01 2.026665e+01 3.800000e+01
    endloop
  endfacet
  facet normal 0.000000e+00 0.000000e+00 1.000000e+00
    outer loop
      vertex 3.811092e+01 9.503188e+00 3.800000e+01
      vertex 3.833300e+01 9.683028e+00 3.800000e+01
      vertex 3.827870e+01 9.750079e+00 3.800000e+01
    endloop
  endfacet
  facet normal 0.000000e+00 0.000000e+00 1.000000e+00
    outer loop
      vertex 4.030489e+01 1.273152e+01 3.800000e+01
      vertex 4.164223e+01 1.644611e+01 3.800000e+01
      vertex 3.803513e+01 2.329951e+01 3.800000e+01
    endloop
  endfacet
  facet normal 0.000000e+00 0.000000e+00 1.000000e+00
    outer loop
      vertex 4.164223e+01 1.644611e+01 3.800000e+01
      vertex 4.201377e+01 2.037659e+01 3.800000e+01
      vertex 3.681563e+01 2.611763e+01 3.800000e+01
    endloop
  endfacet
  facet normal 0.000000e+00 0.000000e+00 1.000000e+00
    outer loop
      vertex 4.201377e+01 2.037659e+01 3.800000e+01
      vertex 4.139616e+01 2.427598e+01 3.800000e+01
      vertex 3.493359e+01 2.854393e+01 3.800000e+01
    endloop
  endfacet
  facet normal 0.000000e+00 0.000000e+00 1.000000e+00
    outer loop
      vertex 4.139616e+01 2.427598e+01 3.800000e+01
      vertex 3.982822e+01 2.789927e+01 3.800000e+01
      vertex 3.250729e+01 3.042596e+01 3.800000e+01
    endloop
  endfacet
  facet normal 0.000000e+00 0.000000e+00 1.000000e+00
    outer loop
      vertex 3.982822e+01 2.789927e+01 3.800000e+01
      vertex 3.740847e+01 3.101880e+01 3.800000e+01
      vertex 2.968918e+01 3.164546e+01 3.800000e+01
    endloop
  endfacet
  facet normal 0.000000e+00 0.000000e+00 1.000000e+00
    outer loop
      vertex 3.740847e+01 3.101880e+01 3.800000e+01
      vertex 3.428894e+01 3.343856e+01 3.800000e+01
      vertex 2.665632e+01 3.212582e+01 3.800000e+01
    endloop
  endfacet
  facet normal 0.000000e+00 0.000000e+00 1.000000e+00
    outer loop
      vertex 3.428894e+01 3.343856e+01 3.800000e+01
      vertex 3.066565e+01 3.500650e+01 3.800000e+01
      vertex 2.359928e+01 3.183685e+01 3.800000e+01
    endloop
  endfacet
  facet normal 0.000000e+00 0.000000e+00 1.000000e+00
    outer loop
      vertex 3.066565e+01 3.500650e+01 3.800000e+01
      vertex 2.676626e+01 3.562409e+01 3.800000e+01
      vertex 2.071015e+01 3.079670e+01 3.800000e+01
    endloop
  endfacet
  facet normal 0.000000e+00 0.000000e+00 1.000000e+00
    outer loop
      vertex 2.676626e+01 3.562409e+01 3.800000e+01
      vertex 2.283578e+01 3.525256e+01 3.800000e+01
      vertex 1.817047e+01 2.907073e+01 3.800000e+01
    endloop
  endfacet
  facet normal 0.000000e+00 0.000000e+00 1.000000e+00
    outer loop
      vertex 2.283578e+01 3.525256e+01 3.800000e+01
      vertex 1.912119e+01 3.391522e+01 3.800000e+01
      vertex -3.373666e+01 -1.887264e+01 3.800000e+01
    endloop
  endfacet
  facet normal 0.000000e+00 0.000000e+00 1.000000e+00
    outer loop
      vertex -3.318508e+01 -1.742201e+01 3.800000e+01
      vertex -3.356747e+01 -1.780440e+01 3.800000e+01
      vertex -3.373666e+01 -1.887264e+01 3.800000e+01
    endloop
  endfacet
  facet normal 0.000000e+00 0.000000e+00 1.000000e+00
    outer loop
      vertex 1.912119e+01 3.391522e+01 3.800000e+01
      vertex 1.520058e+01 3.095283e+01 3.800000e+01
      vertex -3.373666e+01 -1.887264e+01 3.800000e+01
    endloop
  endfacet
  facet normal 0.000000e+00 0.000000e+00 1.000000e+00
    outer loop
      vertex 1.912119e+01 3.391522e+01 3.800000e+01
      vertex 1.585587e+01 3.169612e+01 3.800000e+01
      vertex 1.520058e+01 3.095283e+01 3.800000e+01
    endloop
  endfacet
  facet normal 0.000000e+00 0.000000e+00 1.000000e+00
    outer loop
      vertex 1.513460e+01 3.101880e+01 3.800000e+01
      vertex -3.318508e+01 -1.742201e+01 3.800000e+01
      vertex -3.373666e+01 -1.887264e+01 3.800000e+01
    endloop
  endfacet
  facet normal 0.000000e+00 0.000000e+00 1.000000e+00
    outer loop
      vertex 1.513460e+01 3.101880e+01 3.800000e+01
      vertex -3.324564e+01 -1.736145e+01 3.800000e+01
      vertex -3.318508e+01 -1.742201e+01 3.800000e+01
    endloop
  endfacet
  facet normal 0.000000e+00 0.000000e+00 1.000000e+00
    outer loop
      vertex 3.827870e+01 9.750079e+00 3.800000e+01
      vertex 4.030489e+01 1.273152e+01 3.800000e+01
      vertex 3.851549e+01 2.026665e+01 3.800000e+01
    endloop
  endfacet
  facet normal -7.771462e-01 -6.293202e-01 -0.000000e+00
    outer loop
      vertex -1.698804e+01 -3.072163e+01 2.000000e+00
      vertex -1.698804e+01 -3.072163e+01 3.800000e+01
      vertex -1.704195e+01 -3.065506e+01 2.000000e+00
    endloop
  endfacet
  facet normal -7.771462e-01 -6.293202e-01 -0.000000e+00
    outer loop
      vertex -1.704195e+01 -3.065506e+01 2.000000e+00
      vertex -1.698804e+01 -3.072163e+01 3.800000e+01
      vertex -1.704195e+01 -3.065506e+01 3.800000e+01
    endloop
  endfacet
  facet normal -6.293202e-01 7.771462e-01 0.000000e+00
    outer loop
      vertex -1.740831e+01 -3.106195e+01 2.000000e+00
      vertex -1.740831e+01 -3.106195e+01 3.800000e+01
      vertex -1.698804e+01 -3.072163e+01 2.000000e+00
    endloop
  endfacet
  facet normal -6.293202e-01 7.771462e-01 0.000000e+00
    outer loop
      vertex -1.698804e+01 -3.072163e+01 2.000000e+00
      vertex -1.740831e+01 -3.106195e+01 3.800000e+01
      vertex -1.698804e+01 -3.072163e+01 3.800000e+01
    endloop
  endfacet
  facet normal -9.659258e-01 2.588190e-01 0.000000e+00
    outer loop
      vertex -1.768824e+01 -3.210666e+01 2.000000e+00
      vertex -1.768824e+01 -3.210666e+01 3.800000e+01
      vertex -1.740831e+01 -3.106195e+01 2.000000e+00
    endloop
  endfacet
  facet normal -9.659258e-01 2.588190e-01 0.000000e+00
    outer loop
      vertex -1.740831e+01 -3.106195e+01 2.000000e+00
      vertex -1.768824e+01 -3.210666e+01 3.800000e+01
      vertex -1.740831e+01 -3.106195e+01 3.800000e+01
    endloop
  endfacet
  facet normal -9.335803e-01 -3.583681e-01 -0.000000e+00
    outer loop
      vertex -1.730064e+01 -3.311638e+01 2.000000e+00
      vertex -1.730064e+01 -3.311638e+01 3.800000e+01
      vertex -1.768824e+01 -3.210666e+01 2.000000e+00
    endloop
  endfacet
  facet normal -9.335803e-01 -3.583681e-01 -0.000000e+00
    outer loop
      vertex -1.768824e+01 -3.210666e+01 2.000000e+00
      vertex -1.730064e+01 -3.311638e+01 3.800000e+01
      vertex -1.768824e+01 -3.210666e+01 3.800000e+01
    endloop
  endfacet
  facet normal -5.446392e-01 -8.386704e-01 0.000000e+00
    outer loop
      vertex -1.730064e+01 -3.311638e+01 3.800000e+01
      vertex -1.730064e+01 -3.311638e+01 2.000000e+00
      vertex -1.639357e+01 -3.370544e+01 2.000000e+00
    endloop
  endfacet
  facet normal -5.446392e-01 -8.386704e-01 0.000000e+00
    outer loop
      vertex -1.639357e+01 -3.370544e+01 3.800000e+01
      vertex -1.730064e+01 -3.311638e+01 3.800000e+01
      vertex -1.639357e+01 -3.370544e+01 2.000000e+00
    endloop
  endfacet
  facet normal 5.233598e-02 -9.986296e-01 0.000000e+00
    outer loop
      vertex -1.639357e+01 -3.370544e+01 3.800000e+01
      vertex -1.639357e+01 -3.370544e+01 2.000000e+00
      vertex -1.531349e+01 -3.364883e+01 2.000000e+00
    endloop
  endfacet
  facet normal 5.233598e-02 -9.986296e-01 0.000000e+00
    outer loop
      vertex -1.531349e+01 -3.364883e+01 3.800000e+01
      vertex -1.639357e+01 -3.370544e+01 3.800000e+01
      vertex -1.531349e+01 -3.364883e+01 2.000000e+00
    endloop
  endfacet
  facet normal 6.293202e-01 -7.771462e-01 0.000000e+00
    outer loop
      vertex -1.531349e+01 -3.364883e+01 3.800000e+01
      vertex -1.531349e+01 -3.364883e+01 2.000000e+00
      vertex -1.489323e+01 -3.330851e+01 2.000000e+00
    endloop
  endfacet
  facet normal 6.293202e-01 -7.771462e-01 0.000000e+00
    outer loop
      vertex -1.489323e+01 -3.330851e+01 3.800000e+01
      vertex -1.531349e+01 -3.364883e+01 3.800000e+01
      vertex -1.489323e+01 -3.330851e+01 2.000000e+00
    endloop
  endfacet
endsolid Default
